<?xml version="1.0" encoding="UTF-8" standalone="no"?>
<!-- Created with Inkscape (http://www.inkscape.org/) -->

<svg
   version="1.1"
   id="svg2"
   width="666.66669"
   height="666.66669"
   viewBox="0 0 666.66669 666.66669"
   sodipodi:docname="9886124.eps"
   xmlns:inkscape="http://www.inkscape.org/namespaces/inkscape"
   xmlns:sodipodi="http://sodipodi.sourceforge.net/DTD/sodipodi-0.dtd"
   xmlns="http://www.w3.org/2000/svg"
   xmlns:svg="http://www.w3.org/2000/svg">
  <defs
     id="defs6" />
  <sodipodi:namedview
     id="namedview4"
     pagecolor="#ffffff"
     bordercolor="#000000"
     borderopacity="0.25"
     inkscape:showpageshadow="2"
     inkscape:pageopacity="0.0"
     inkscape:pagecheckerboard="0"
     inkscape:deskcolor="#d1d1d1" />
  <g
     id="g8"
     inkscape:groupmode="layer"
     inkscape:label="ink_ext_XXXXXX"
     transform="matrix(1.3333333,0,0,-1.3333333,0,666.66667)">
    <g
       id="g10"
       transform="scale(0.1)">
      <path
         d="M 0,0 H 5000 V 5000 H 0 Z"
         style="fill:#88ed88;fill-opacity:1;fill-rule:nonzero;stroke:none"
         id="path12" />
      <path
         d="m 3506.28,1843.43 c -6.2,-57.39 -19.54,-113.04 -40.26,-166.69 -27.68,-71.68 -71.59,-133.04 -124.2,-188.61 -69.92,-73.93 -151.66,-131.95 -240.38,-180.91 -21.37,-11.76 -42.34,-24.29 -63.13,-36.89 -44.72,-27.22 -69.95,-66.45 -74.34,-119.15 -3.37,-40.34 -1.94,-80.38 1.59,-120.53 0.39,-4.38 0.52,-8.75 0.81,-14.14 -13.57,-2.91 -26.88,-5.83 -40.27,-8.49 -24.94,-5 -49.88,-10.258 -74.82,-15.348 -37.32,-7.762 -74.64,-15.274 -112.12,-21.512 -51.88,-8.648 -104.4,-13.262 -156.76,-19.039 -15.32,-1.723 -17.99,0.738 -20.3,16.488 -2.86,19.45 -4.13,39.141 -6.66,58.761 -1.81,13.8 -4.73,27.54 -6.8,41.35 -0.87,5.56 -1,11.19 -0.78,16.74 0.23,7.4 -3.35,12.14 -9.64,14.46 -4.52,1.64 -9.56,2.27 -14.44,2.31 -94.87,0.29 -189.07,9.24 -282.64,24.66 -68.87,11.43 -133.68,34.94 -196.16,65.99 -74.04,36.79 -146.21,76.25 -210.78,128.6 -77.69,62.97 -131.19,142.06 -162.35,236.77 -18.05,54.57 -32.55,109.94 -36.95,167.42 -2.04,26.85 -2.15,53.93 -0.92,80.75 0.52,11.85 5.42,23.76 9.97,34.99 7.47,18.52 15.53,36.45 24.51,53.87 10.69,21.19 22.55,41.53 35.66,60.93 4.52,6.86 9.28,13.63 14.13,20.23 18.38,25.08 38.85,48.46 61.57,69.97 21.95,20.84 45.92,40.06 72.13,57.42 28.84,19.1 59.5,33.99 94.35,38.15 49,5.73 92.89,-5.91 129.7,-39.44 13.27,-12.05 25.52,-25.11 37.78,-38.16 41.68,-44.26 82.85,-88.84 124.61,-132.93 12.84,-13.48 27.21,-25.54 40.72,-38.44 2.34,-2.29 3.74,-5.49 5.83,-8.03 1.91,-2.38 3.74,-5 6.25,-6.53 7.36,-4.77 15.06,-8.96 22.51,-13.65 29.86,-18.75 61.81,-29.95 97.44,-23.61 42.54,7.55 68.83,33.99 82.29,74.08 17.08,51.16 15.24,102.65 2.05,154.23 -11.32,43.91 -30.66,84.28 -56.94,120.07 -5.65,7.79 -11.73,15.41 -18.06,22.78 -28.81,33.63 -65.26,59.67 -105.12,80.44 -47.57,24.88 -97.88,42.62 -148.28,60.46 -45.19,15.93 -91,29.94 -137.06,43.03 -29.45,8.41 -59.16,16.48 -88.78,24.38 -77.2,20.58 -150.29,50.88 -218.05,93.5 l -0.17,0.17 c -87.01,54.64 -145.47,133.18 -184.3,226.87 -30.58,74.01 -47.59,151.87 -58.53,230.93 -2.06,14.9 -3.54,29.8 -4.42,44.7 -1.9,34.24 -1.02,68.63 1.87,102.93 0.29,3.86 0.66,7.73 1.03,11.59 1.38,14.96 3.11,30 4.91,44.96 1.99,16.63 4.07,33.35 6.06,49.99 0.54,4.54 1.93,9.15 3.73,13.42 49.87,119.35 112.7,230.68 198.88,327.85 l 0.09,0.09 c 40.75,45.91 86.68,86.48 132.94,126.72 64.81,56.22 138.57,97.41 217.49,129.96 3.03,1.24 6.16,2.56 9.03,4.13 1.86,1.17 2.79,1.74 2.79,1.74 6.68,4.57 7.41,10.46 5.29,18.38 -8.49,31.53 -22.2,60.74 -36.85,89.63 -3.14,6.25 -6.37,12.5 -9.6,18.75 -0.41,0.84 -0.57,1.85 -1.14,3.88 8.45,4.47 16.65,9.36 25.34,13.32 37.57,16.93 75.22,33.77 113.04,50.28 52.25,22.77 106.95,36.27 163.99,38.74 11.27,0.41 22.78,-1.29 34.04,-3.31 19.06,-3.28 31.66,-15.41 40.52,-32.06 16.06,-30.24 26.3,-62.62 34.43,-95.66 0.33,-1.26 0.65,-2.53 0.81,-3.79 5.37,-41.76 32.46,-60.99 70.75,-68.63 42.48,-8.52 85.14,-16.02 127.28,-26.05 127.41,-30.34 242.16,-87.06 344.76,-168.33 57.48,-45.56 107.58,-98.38 153.19,-155.61 29.63,-37.34 55.71,-76.84 79.07,-118.33 29.67,-52.9 46.1,-109.64 52.91,-169.66 1.96,-17.09 3.41,-34.18 4.11,-51.26 1.46,-36.34 -0.44,-72.49 -7.97,-108.42 -1.84,-8.99 -3.94,-17.8 -6.28,-26.53 -4,-15.69 -8.59,-30.96 -13.84,-45.97 -3.71,-10.57 -7.75,-20.96 -12.21,-31.18 -11.07,-25.9 -24.48,-50.51 -40.4,-73.84 -16.35,-23.92 -35.38,-46.38 -57.59,-67.23 -11.7,-11 -23.31,-22.17 -34.93,-33.34 -33.4,-31.94 -73.09,-51.2 -118.49,-59.48 -39.42,-7.24 -78.92,-13.38 -119.09,-9.43 -45.29,4.5 -89.89,12.53 -131.95,31.14 -30.08,13.28 -54.38,34.01 -76.22,57.99 -19.66,21.7 -36.29,45.3 -50.2,70.74 -6.05,10.9 -11.51,22.21 -16.54,33.78 -25.9,60.01 -51.72,120.03 -78.22,179.79 -14.94,33.86 -32.66,66.22 -57.67,93.84 -39.74,43.99 -88.89,69.97 -148.31,75.18 -23.7,2.13 -45.55,-5.67 -67.15,-13.99 -6.83,-2.63 -13.58,-5.1 -20.5,-7.31 -25.46,-7.95 -44.27,-23.85 -58.84,-46.02 -19.17,-29.27 -28.27,-62 -34.95,-95.83 -8.08,-40.56 -12.79,-81.48 -14.74,-122.76 -2.84,-58.51 14.62,-111.81 40.94,-163.25 7.44,-14.61 15.57,-28.39 24.37,-41.5 48.51,-72.32 116.38,-122.84 196.05,-160.43 2.76,-1.29 5.44,-2.57 8.21,-3.86 45.66,-20.82 92.19,-38.7 141.29,-49.96 39.79,-9.08 79.95,-14.72 120.38,-18 19.16,-1.76 38.49,-2.85 57.83,-3.52 42.21,-1.44 84.4,-4.66 126.6,-6.78 5.5,-0.27 11.07,-0.11 16.62,0.04 9.05,0.26 18.08,0.51 26.77,-1.08 95.65,-17.62 191.9,-32.98 283.37,-67.81 30.09,-11.44 59.59,-24.72 89.08,-37.75 2.26,-1.03 4.53,-1.97 6.79,-3 27.65,-12.09 50.62,-31.46 74.35,-49.57 1.09,-0.85 2.17,-1.71 3.26,-2.56 46.8,-36.22 87.65,-78.11 122.49,-126.26 39.07,-53.9 60.85,-114.72 72.33,-179.58 12.45,-70.75 12.86,-141.9 5.11,-213.33"
         style="fill:#90d966;fill-opacity:1;fill-rule:nonzero;stroke:none"
         id="path14" />
      <path
         d="m 1735.5,3183.28 c -10.72,0 -20.14,2.72 -27.76,8.45 -37.53,28.24 -17.04,118.8 45.76,202.28 50.06,66.53 111.88,108.47 153.92,108.47 10.71,0 20.14,-2.72 27.76,-8.45 37.53,-28.24 17.04,-118.8 -45.77,-202.28 -50.05,-66.52 -111.87,-108.47 -153.91,-108.47"
         style="fill:#c8ec99;fill-opacity:1;fill-rule:nonzero;stroke:none"
         id="path16" />
      <path
         d="m 2851.28,992.672 92.66,66.588 c -36.1,148.33 36.44,203.98 40.08,206.73 -8.92,-1.91 -16.05,-2.56 -21.62,-2.56 -11.91,0 -16.72,2.96 -16.72,2.96 578.2,249.56 520.9,686.38 520.9,686.38 -147.77,101.07 -103.99,306.08 -103.99,306.08 -26.61,57.08 -95.12,120.73 -140.64,158.88 2.26,-1.03 4.53,-1.97 6.79,-3 27.65,-12.09 50.62,-31.46 74.35,-49.57 1.09,-0.85 2.17,-1.71 3.26,-2.56 46.8,-36.22 87.65,-78.11 122.49,-126.26 39.07,-53.9 60.85,-114.72 72.33,-179.58 7.1,-40.35 10.28,-80.83 10.27,-121.42 -0.01,-30.58 -1.83,-61.22 -5.16,-91.91 -6.2,-57.39 -19.54,-113.04 -40.26,-166.69 -27.68,-71.68 -71.59,-133.04 -124.2,-188.61 -69.92,-73.93 -151.66,-131.95 -240.38,-180.91 -21.37,-11.76 -42.34,-24.29 -63.13,-36.89 -44.72,-27.22 -69.95,-66.45 -74.34,-119.15 -1.33,-15.91 -1.91,-31.78 -1.91,-47.63 0,-24.32 1.37,-48.59 3.5,-72.9 0.39,-4.38 0.52,-8.75 0.81,-14.14 -13.57,-2.91 -26.88,-5.83 -40.27,-8.49 -24.94,-5 -49.88,-10.258 -74.82,-15.348"
         style="fill:#c8ec99;fill-opacity:1;fill-rule:nonzero;stroke:none"
         id="path18" />
      <path
         d="m 2098.71,1673.14 c -36.85,0 -89.06,21.2 -138.25,59.2 -73.58,56.84 -112.52,129.74 -86.96,162.82 8.47,10.96 22.97,16.18 41.24,16.18 36.85,0 89.07,-21.2 138.26,-59.2 73.58,-56.84 112.51,-129.73 86.96,-162.81 -8.47,-10.97 -22.97,-16.19 -41.25,-16.19"
         style="fill:#c8ec99;fill-opacity:1;fill-rule:nonzero;stroke:none"
         id="path20" />
      <path
         d="m 3104.81,3021.11 c -37.63,0 -91.23,45.51 -129.96,113.91 -45.81,80.91 -53.46,163.2 -17.08,183.79 5.62,3.19 11.98,4.71 18.86,4.71 37.63,0 91.22,-45.51 129.95,-113.91 45.81,-80.91 53.46,-163.19 17.09,-183.79 -5.63,-3.19 -11.98,-4.71 -18.86,-4.71"
         style="fill:#c8ec99;fill-opacity:1;fill-rule:nonzero;stroke:none"
         id="path22" />
      <path
         d="m 2874.18,3383.86 c -21.45,0 -52.9,22.23 -77.91,57.15 -31.02,43.31 -40.39,89.72 -20.92,103.66 3.78,2.71 8.36,3.99 13.52,3.99 21.45,0 52.9,-22.23 77.91,-57.14 31.02,-43.31 40.39,-89.72 20.91,-103.67 -3.77,-2.71 -8.35,-3.99 -13.51,-3.99"
         style="fill:#c8ec99;fill-opacity:1;fill-rule:nonzero;stroke:none"
         id="path24" />
      <path
         d="m 1723.02,2514.33 c -87.01,54.64 -145.47,133.18 -184.3,226.87 -30.58,74.01 -47.59,151.87 -58.53,230.93 -2.06,14.9 -3.54,29.8 -4.42,44.7 -0.68,12.31 -1.01,24.63 -1.01,36.96 0,21.99 1.03,44 2.88,65.97 0.29,3.86 0.66,7.73 1.03,11.59 1.38,14.96 3.11,30 4.91,44.96 1.99,16.63 4.07,33.35 6.06,49.99 0.54,4.54 1.93,9.15 3.73,13.42 49.87,119.35 112.7,230.68 198.88,327.85 l 0.09,0.09 c 40.75,45.91 86.68,86.48 132.94,126.72 64.81,56.22 138.57,97.41 217.49,129.96 3.03,1.24 6.16,2.56 9.03,4.13 -40,-25.65 -502.34,-329.17 -534.61,-696.35 -33.28,-378.19 198.99,-611 205.83,-617.79"
         style="fill:#c8ec99;fill-opacity:1;fill-rule:nonzero;stroke:none"
         id="path26" />
      <path
         d="m 3256.53,3170.5 c -82.11,187.66 -344.09,618.11 -1030.18,652.05 0,0 66.18,39.22 139.87,50.38 0,0 -55.47,155.3 -73.24,161.76 -0.47,0.17 -1.13,0.25 -1.96,0.25 -23.56,0 -189.34,-65.22 -267.99,-96.72 v 0 c -3.14,6.25 -6.37,12.5 -9.6,18.75 -0.41,0.84 -0.57,1.85 -1.14,3.88 8.45,4.47 16.65,9.36 25.34,13.32 37.57,16.93 75.22,33.77 113.04,50.28 52.25,22.77 106.95,36.27 163.99,38.74 1.15,0.04 2.3,0.06 3.45,0.06 10.16,0 20.48,-1.55 30.59,-3.37 19.06,-3.28 31.66,-15.41 40.52,-32.06 16.06,-30.24 26.3,-62.62 34.43,-95.66 0.33,-1.26 0.65,-2.53 0.81,-3.79 5.37,-41.76 32.46,-60.99 70.75,-68.63 42.48,-8.52 85.14,-16.02 127.28,-26.05 127.41,-30.34 242.16,-87.06 344.76,-168.33 57.48,-45.56 107.58,-98.38 153.19,-155.61 29.63,-37.34 55.71,-76.84 79.07,-118.33 29.67,-52.9 46.1,-109.64 52.91,-169.66 1.96,-17.09 3.41,-34.18 4.11,-51.26"
         style="fill:#c8ec99;fill-opacity:1;fill-rule:nonzero;stroke:none"
         id="path28" />
      <path
         d="m 2411.14,1841.19 c 35.83,6.36 61.06,28.24 76.42,59.22 -14.66,-31.75 -39.38,-52.65 -76.42,-59.22 m -47.74,1.59 c -12.2,2.96 -23.99,7.72 -35.45,13.77 11.6,-5.96 23.3,-10.77 35.45,-13.77 m -78.84,42.67 c -1.6,2.09 -2.83,4.55 -4.52,6.56 1.52,-1.81 2.92,-4.2 4.52,-6.56 m -5.31,7.43 -0.01,0.01 0.01,-0.01 m -0.04,0.04 c -0.01,0.01 -0.02,0.02 -0.03,0.03 0.01,-0.01 0.02,-0.02 0.03,-0.03 m -0.04,0.04 c -0.02,0.02 -0.04,0.04 -0.06,0.05 0.02,-0.01 0.04,-0.03 0.06,-0.05 m -0.06,0.05 c -13.51,12.9 -27.88,24.96 -40.72,38.44 -14.39,15.2 -28.71,30.44 -43,45.72 23.81,-25.14 51.26,-53.18 83.72,-84.16 m -610.65,2.27 c 0.07,0.16 0.15,0.3 0.22,0.45 -0.07,-0.15 -0.15,-0.3 -0.22,-0.45 m 0.4,0.81 c 0.01,0.01 0.03,0.05 0.04,0.07 -0.01,-0.03 -0.03,-0.05 -0.04,-0.07 m 836.93,93.44 c -0.16,65.34 -23.49,140.43 -67.25,200.04 v 0 c 26.28,-35.79 45.62,-76.16 56.94,-120.07 6.83,-26.69 10.61,-53.36 10.31,-79.97 m -339.37,18.64 c -17.51,18.75 -35.04,37.51 -52.64,56.21 -6.66,7.09 -13.33,14.19 -20.15,21.12 20.86,-20.34 43.93,-46.1 72.79,-77.33 m -401.13,23.92 c 27.43,28.47 56.01,51.86 83.56,69.67 -25.01,-16.81 -47.94,-35.34 -69.03,-55.35 -4.95,-4.69 -9.8,-9.46 -14.53,-14.32 m 274.26,95.57 c -21.61,10.7 -45.01,15.72 -69.91,15.72 -7.64,0 -15.42,-0.48 -23.34,-1.4 9.43,1.1 18.24,1.65 26.56,1.65 25.74,0 46.75,-5.29 66.69,-15.97 m -93.52,14.29 c 0.09,0.01 0.18,0.02 0.27,0.03 -0.09,-0.01 -0.18,-0.02 -0.27,-0.03"
         style="fill:#c4f6c4;fill-opacity:1;fill-rule:nonzero;stroke:none"
         id="path30" />
      <path
         d="m 2425.29,1724.71 c -68.61,0 -146.84,73.45 -234.68,146.91 -87.82,73.45 -185.26,146.91 -292.23,146.91 -72.29,0 -148.92,-33.52 -229.92,-123.25 v 0 c 0.07,0.15 0.15,0.3 0.22,0.45 0.06,0.12 0.12,0.24 0.18,0.36 0.01,0.02 0.03,0.04 0.04,0.07 26.97,53.23 60.7,98.88 96.39,135.93 4.73,4.86 9.58,9.63 14.53,14.32 21.09,20.01 44.02,38.54 69.03,55.35 35.73,23.11 69.7,36.84 97.18,40.19 0.09,0.01 0.18,0.02 0.27,0.03 v 0 0 c 7.92,0.92 15.7,1.4 23.34,1.4 24.9,0 48.3,-5.02 69.91,-15.72 18,-9.64 35.13,-23.66 54.08,-42.16 6.82,-6.93 13.49,-14.03 20.15,-21.12 17.6,-18.7 35.13,-37.46 52.64,-56.21 9.05,-9.79 18.66,-20.12 28.97,-31 14.29,-15.28 28.61,-30.52 43,-45.72 12.84,-13.48 27.21,-25.54 40.72,-38.44 v 0 0 c 0.02,-0.01 0.04,-0.03 0.06,-0.05 0,0 0,-0.01 0.01,-0.01 0.01,-0.01 0.02,-0.02 0.03,-0.03 0.01,-0.01 0.02,-0.02 0.03,-0.03 l 0.01,-0.01 c 0.27,-0.28 0.53,-0.56 0.79,-0.87 1.69,-2.01 2.92,-4.47 4.52,-6.56 1.81,-2.68 3.87,-5.32 6.63,-7 12.45,-8.07 24.56,-15.62 36.76,-21.9 11.46,-6.05 23.25,-10.81 35.45,-13.77 8.88,-2.19 17.99,-3.41 27.5,-3.41 6.55,0 13.28,0.58 20.24,1.82 v 0 c 37.04,6.57 61.76,27.47 76.42,59.22 12.36,24.94 18.32,55.76 18.23,89.12 0.3,26.61 -3.48,53.28 -10.31,79.97 -11.32,43.91 -30.66,84.28 -56.94,120.07 72.32,-71.09 186.79,-220.91 89.42,-389.14 -31.42,-54.32 -65.65,-75.72 -102.67,-75.72"
         style="fill:#c8ec99;fill-opacity:1;fill-rule:nonzero;stroke:none"
         id="path32" />
      <path
         d="m 2585.5,952.461 c 0.27,0.027 0.54,0.059 0.81,0.09 l -0.12,-0.039 c -0.23,-0.024 -0.46,-0.032 -0.69,-0.051 m -37.63,133.689 c -0.01,7 -3.55,11.52 -9.65,13.77 l -0.42,0.09 c -3.85,1.38 -8.05,2 -12.17,2.12 l -0.25,0.07 c 4.37,-0.16 8.81,-0.82 12.84,-2.28 6.1,-2.25 9.64,-6.77 9.65,-13.77 m 474.46,1402.89 c -57.04,13.79 -115.05,23.61 -172.83,34.25 57.78,-10.61 115.78,-20.42 172.83,-34.25"
         style="fill:#69d060;fill-opacity:1;fill-rule:nonzero;stroke:none"
         id="path34" />
      <path
         d="m 2575.51,951.648 c -9.35,0 -11.5,3.934 -13.41,16.961 -2.86,19.45 -4.13,39.141 -6.66,58.761 -1.81,13.8 -4.73,27.54 -6.8,41.35 -0.64,4.08 -0.88,8.2 -0.87,12.3 0,1.49 0.03,2.97 0.09,4.44 0.01,0.23 0.01,0.46 0.01,0.69 -0.01,7 -3.55,11.52 -9.65,13.77 -4.03,1.46 -8.47,2.12 -12.84,2.28 l -0.09,0.02 c -87.67,15.62 -597.76,116.04 -747.78,348.67 -105.19,163.12 -139.96,309.41 -117.1,428.06 2.57,5.53 5.31,10.97 8.05,16.33 184.7,-286.24 511.03,-484.23 802.55,-484.23 229.34,0 437.12,122.46 537.61,420.83 247.21,734.18 -974.48,534.17 -1208.84,939.25 -71.05,122.72 -84.78,240.74 -60.58,347.86 h 0.09 c 153.64,18.05 332.72,241.86 265.71,364.46 85.03,60.43 179.85,104.38 269.19,127.01 28.06,7.12 55.46,10.45 82.12,10.45 276.89,0 476.33,-358.91 560.98,-556.56 38.57,-90.14 98.95,-135.95 156.33,-158.72 -38.09,-15.71 -81.47,-25.9 -129.97,-25.9 -29.98,0.01 -61.93,3.9 -95.76,12.79 -272.73,71.68 -216.89,462.29 -549.06,467.19 -1.19,0.01 -2.34,0.02 -3.53,0.02 -318.28,0 -478.59,-633.16 56.5,-753.28 -79.67,37.59 -147.54,88.11 -196.05,160.43 -8.8,13.11 -16.93,26.89 -24.37,41.5 -24.41,47.72 -41.21,97.05 -41.24,150.65 0.03,-53.6 16.83,-102.93 41.24,-150.65 7.44,-14.61 15.57,-28.39 24.37,-41.5 48.51,-72.32 116.38,-122.84 196.05,-160.43 2.76,-1.29 5.44,-2.57 8.21,-3.86 45.66,-20.82 92.19,-38.7 141.29,-49.96 39.79,-9.08 79.95,-14.72 120.38,-18 19.16,-1.76 38.49,-2.85 57.83,-3.52 42.21,-1.44 84.4,-4.66 126.6,-6.78 2.17,-0.11 4.35,-0.15 6.54,-0.15 3.35,0 6.72,0.1 10.08,0.19 3.36,0.1 6.71,0.19 10.05,0.19 5.65,0 11.25,-0.27 16.72,-1.27 v 0 c 57.78,-10.64 115.79,-20.46 172.83,-34.25 4.55,-1.1 9.11,-2.23 13.65,-3.39 60.39,-29.61 179.66,-97.98 259.4,-207.14 -28.68,-30.63 -20.88,-193.6 19.75,-333.3 14.98,-51.56 31.67,-71.93 46.49,-71.93 11.13,0 21.2,11.5 28.68,29.92 -5.47,-230.23 -125.86,-495.5 -641.95,-679.39 0,0 33.01,-14 84.18,-14 24.41,0 52.94,3.18 84.01,12.59 0,0 -20.61,-110.59 -5.57,-162.44 L 2586.31,952.551 c -0.27,-0.031 -0.54,-0.063 -0.81,-0.09 -1.03,-0.082 -2.07,-0.211 -3.1,-0.34 v 0 c -2.65,-0.301 -4.93,-0.473 -6.89,-0.473 m 542.73,1865.682 c 18.02,16.95 34.01,34.98 48.15,53.99 -14.12,-19.01 -30.08,-37.03 -48.15,-53.99"
         style="fill:#70be48;fill-opacity:1;fill-rule:nonzero;stroke:none"
         id="path36" />
      <path
         d="m 3166.39,2871.32 c 3.25,4.36 6.39,8.77 9.44,13.24 v 0 0 c 15.92,23.33 29.33,47.94 40.4,73.84 4.46,10.22 8.5,20.61 12.21,31.18 5.25,15.01 9.84,30.28 13.84,45.97 v 0 c -15.28,-60 -39.5,-115.35 -75.89,-164.23"
         style="fill:#69d060;fill-opacity:1;fill-rule:nonzero;stroke:none"
         id="path38" />
      <path
         d="m 3175.83,2884.56 c -28.08,1.1 -64.5,6.11 -102.21,21.07 80.75,33.32 137.62,91.45 168.66,129.92 -4,-15.69 -8.59,-30.96 -13.84,-45.97 -3.71,-10.57 -7.75,-20.96 -12.21,-31.18 -11.07,-25.9 -24.48,-50.51 -40.4,-73.84 v 0"
         style="fill:#70be48;fill-opacity:1;fill-rule:nonzero;stroke:none"
         id="path40" />
      <path
         d="m 2351.8,2606.45 c -535.09,120.12 -374.78,753.28 -56.5,753.28 1.19,0 2.34,-0.01 3.53,-0.02 332.17,-4.9 276.33,-395.51 549.06,-467.19 33.83,-8.89 65.78,-12.78 95.76,-12.79 48.5,0 91.88,10.19 129.97,25.9 37.71,-14.96 74.13,-19.97 102.21,-21.07 -3.05,-4.47 -6.19,-8.88 -9.44,-13.24 -14.14,-19.01 -30.13,-37.04 -48.15,-53.99 v 0 c -11.7,-11 -23.31,-22.17 -34.93,-33.34 -33.4,-31.94 -73.09,-51.2 -118.49,-59.48 -30.88,-5.67 -61.81,-10.67 -93.06,-10.67 -8.65,0 -17.32,0.39 -26.03,1.24 -45.29,4.5 -89.89,12.53 -131.95,31.14 -30.08,13.28 -54.38,34.01 -76.22,57.99 -19.66,21.7 -36.29,45.3 -50.2,70.74 -6.05,10.9 -11.51,22.21 -16.54,33.78 -25.9,60.01 -51.72,120.03 -78.22,179.79 -14.94,33.86 -32.66,66.22 -57.67,93.84 -39.74,43.99 -88.89,69.97 -148.31,75.18 -2.69,0.24 -5.36,0.35 -8,0.35 -20.66,0 -40,-6.97 -59.15,-14.34 -6.83,-2.63 -13.58,-5.1 -20.5,-7.31 -25.46,-7.95 -44.27,-23.85 -58.84,-46.02 -19.17,-29.27 -28.27,-62 -34.95,-95.83 -8.08,-40.56 -12.79,-81.48 -14.74,-122.76 -0.2,-4.22 -0.3,-8.43 -0.3,-12.6 v 0 c 0.03,-53.6 16.83,-102.93 41.24,-150.65 7.44,-14.61 15.57,-28.39 24.37,-41.5 48.51,-72.32 116.38,-122.84 196.05,-160.43"
         style="fill:#57a733;fill-opacity:1;fill-rule:nonzero;stroke:none"
         id="path42" />
      <path
         d="m 1455.88,3132.66 c -0.08,-9.74 0.52,-21.12 -0.38,-32.38 -6.55,-81.77 2.23,-162.06 21.81,-241.5 13.24,-53.72 26.99,-107.38 50.63,-157.54 46.53,-98.75 115.9,-176.29 212.61,-229.53 75.76,-41.71 156.58,-68.41 239.48,-90.52 96.58,-25.77 191.38,-57.1 283.41,-96.15 44.86,-19.04 86.85,-43.47 120.86,-79.43 52.46,-55.5 84.42,-120.42 90.61,-197.29 2.61,-32.44 -1.97,-63.72 -13.98,-93.76 -7.33,-18.32 -19.61,-32.91 -37.78,-41.79 -1.15,-0.57 -2.39,-0.98 -3.63,-1.33 -0.42,-0.12 -0.95,0.19 -1.96,0.43 18.87,25.9 24.56,56.12 29.46,86.6 0.49,3.06 1.18,6.36 0.52,9.26 -0.64,2.85 -2.87,5.33 -4.41,7.98 -2.16,-2.12 -5.54,-3.88 -6.29,-6.41 -3.66,-12.42 -6.76,-25.02 -9.8,-37.61 -4.73,-19.53 -13.01,-37.2 -27.14,-51.72 -9.71,-9.98 -23.74,-13.72 -33.7,-9.26 5.35,4.56 10.84,8.8 15.83,13.57 17.39,16.67 26.05,38.21 30.72,60.96 3.57,17.4 4.44,35.44 5.3,53.26 0.35,7.28 -0.76,15.49 -9.95,21.72 -0.75,-4.49 -2.06,-7.63 -1.64,-10.52 4.35,-30.49 -2.2,-58.74 -16.94,-85.42 -10.91,-19.75 -27.48,-32.96 -48.27,-40.75 -3.4,-1.27 -8.26,1.36 -12.44,2.19 l -0.4,2.63 c 2.62,2.37 5.28,4.69 7.87,7.1 26.97,25.14 40.85,56.47 42.9,92.97 1.52,27.04 -0.6,53.93 -6.81,80.35 -1.46,6.24 -3.84,12.49 -7.07,17.99 -1.53,2.59 -6.06,3.41 -9.24,5.03 -1.08,-3.33 -3.9,-7.26 -2.98,-9.9 7.51,-21.65 9.61,-44.22 9.93,-66.67 0.48,-33.44 -7.83,-64.92 -29.69,-91.25 -6.18,-7.45 -14.73,-12.95 -22.3,-19.2 -0.95,-0.79 -2.58,-0.76 -5.04,-1.42 4.76,6.28 8.96,11.31 12.61,16.71 21.81,32.3 27.54,68.75 24.39,106.39 -8.66,103.31 -64.7,173.5 -155.89,217.97 -46.22,22.55 -95.83,34.88 -145.32,47.83 -88.3,23.1 -177.93,41.04 -264.97,68.96 -61.53,19.74 -120.64,44.37 -174.34,81.04 -55.24,37.73 -93.93,88.68 -121.66,148.79 -34.57,74.92 -55.29,153.5 -63.33,235.58 -5.34,54.49 -0.39,108.47 8.72,162 7.92,46.48 18.52,92.51 27.99,138.72 0.5,2.43 1.52,4.74 1.7,5.32"
         style="fill:#90d966;fill-opacity:1;fill-rule:nonzero;stroke:none"
         id="path44" />
      <path
         d="m 1613.15,1705.8 c 11.94,-95.1 36.49,-184.1 82.57,-266.38 33.47,-59.79 79.19,-108.66 132.62,-151.16 65.92,-52.43 139.87,-90.82 214.82,-128.03 78.13,-38.8 160.74,-60.78 246.84,-71.57 73.94,-9.26 148.05,-15.93 222.6,-17.01 1.52,-0.02 3.04,-0.22 5.12,-0.38 2.04,-22.38 3.88,-44.53 6.15,-66.65 1.58,-15.472 2.84,-31.069 5.85,-46.288 5.67,-28.711 21.95,-41.543 51.01,-40.184 68.82,3.211 136.76,13.582 204.26,26.903 57.24,11.289 114.36,23.16 171.54,34.75 1.2,0.238 2.46,0.199 4.54,0.347 -5.37,-9.539 -10.6,-17.527 -20.41,-22.476 -26.35,-13.281 -51.65,-28.813 -78.49,-40.93 -60.48,-27.293 -124.5,-40.433 -190.62,-44.64 -59.46,-3.782 -118.22,0.839 -176.48,12.609 -11.39,2.301 -22.59,5.898 -33.59,9.738 -15.09,5.262 -24.25,16 -25.09,32.301 -1.26,24.551 -1.76,49.148 -2.94,73.71 -0.15,3.24 -1.52,7.92 -3.86,9.26 -6.34,3.65 -13.42,8.01 -20.36,8.29 -53.03,2.09 -105.23,11.01 -157.66,18.03 -79.91,10.68 -158.08,29.32 -235.25,52.16 -54.09,16.01 -106.56,36.79 -156.7,62.42 -107.12,54.77 -186.08,136.38 -228.41,250.34 -14.87,40.02 -20.88,82.29 -25.15,124.79 -5.74,56.99 -0.98,113.53 4.9,170.1 0.19,1.8 0.56,3.59 0.91,5.37 0.2,0.98 0.53,1.94 1.28,4.58"
         style="fill:#90d966;fill-opacity:1;fill-rule:nonzero;stroke:none"
         id="path46" />
      <path
         d="m 2773.02,2692.39 c -21.84,2.26 -44,2.88 -65.4,7.26 -20.89,4.27 -40.99,12.39 -61.43,18.82 -0.59,-0.91 -1.18,-1.81 -1.77,-2.72 3.89,-3.13 7.4,-7.03 11.75,-9.28 27.29,-14.05 56.88,-20.95 86.82,-26.09 16.3,-2.8 32.95,-3.63 49.43,-5.41 4,-0.44 7.97,-1.13 11.83,-2.49 -54.17,-4.51 -106.44,3.88 -156.5,24.64 -18.82,7.79 -34.51,20.96 -48.71,35.63 -1.81,1.86 -3.37,3.96 -5.23,5.77 -3.72,3.61 -7.4,10.35 -13.21,5.16 -5.35,-4.76 -0.45,-10.21 2.93,-14.26 19.05,-22.82 41.15,-41.71 69.32,-52.54 3.37,-1.29 6.68,-2.7 9.76,-5.27 -6.02,1.21 -12.19,1.95 -18.04,3.72 -97.96,29.58 -178.79,82.05 -229.46,173.87 -19.59,35.49 -30.2,74.46 -39.76,113.55 -13.05,53.4 -24.8,107.12 -37.86,160.52 -7.07,28.91 -17.35,56.8 -37.96,79.21 -8.49,9.24 -18.75,16.85 -28.53,25.48 11.7,2 23.31,-0.19 34.75,-2.88 55.62,-13.09 97.89,-44.84 128.58,-92.62 23.12,-35.97 39.63,-75.23 56.52,-114.27 19.68,-45.47 38.7,-91.22 58.43,-136.66 17.24,-39.73 42.49,-74.15 71.67,-105.89 39.2,-42.64 88.49,-66.91 144.11,-79.81 2.74,-0.64 5.43,-1.51 8.14,-2.27 l -0.18,-1.17"
         style="fill:#90d966;fill-opacity:1;fill-rule:nonzero;stroke:none"
         id="path48" />
      <path
         d="m 2366.25,1870.69 c -0.02,0 -0.03,0.01 -0.05,0.02 5.35,4.56 10.84,8.8 15.83,13.57 17.39,16.67 26.05,38.21 30.72,60.96 0.79,3.85 1.45,7.74 2.01,11.65 -0.55,-3.92 -1.21,-7.82 -1.99,-11.68 -4.73,-22.75 -13.32,-44.29 -30.7,-60.97 -5,-4.74 -10.49,-8.98 -15.82,-13.55"
         style="fill:#61b23b;fill-opacity:1;fill-rule:nonzero;stroke:none"
         id="path50" />
      <path
         d="m 2418.93,1871.47 c -0.15,0.04 -0.31,0.09 -0.49,0.15 0.18,-0.05 0.34,-0.11 0.49,-0.15"
         style="fill:#61b23b;fill-opacity:1;fill-rule:nonzero;stroke:none"
         id="path52" />
      <path
         d="m 2420.74,1871.81 c 0.82,0.29 1.65,0.6 2.44,0.99 3.1,1.5 6.02,3.18 8.77,5.01 -2.77,-1.84 -5.7,-3.53 -8.8,-5.04 -0.77,-0.38 -1.59,-0.69 -2.41,-0.96"
         style="fill:#61b23b;fill-opacity:1;fill-rule:nonzero;stroke:none"
         id="path54" />
      <path
         d="m 2417.56,1871.87 v 0 c 18.87,25.9 24.56,56.12 29.46,86.6 0.05,0.29 0.1,0.59 0.15,0.89 -0.05,-0.3 -0.1,-0.6 -0.14,-0.89 -4.88,-30.48 -10.6,-60.7 -29.47,-86.6"
         style="fill:#61b23b;fill-opacity:1;fill-rule:nonzero;stroke:none"
         id="path56" />
      <path
         d="m 2392.79,1874.21 c 2.52,1.59 4.9,3.52 7.07,5.76 6.7,6.86 12.08,14.43 16.4,22.57 -4.31,-8.14 -9.68,-15.7 -16.36,-22.57 -2.18,-2.24 -4.58,-4.17 -7.11,-5.76"
         style="fill:#61b23b;fill-opacity:1;fill-rule:nonzero;stroke:none"
         id="path58" />
      <path
         d="m 2328.84,1885.72 c -0.01,0 -0.02,0 -0.03,0 l -0.4,2.63 c 1.46,1.32 2.93,2.62 4.4,3.94 -1.45,-1.32 -2.91,-2.64 -4.37,-3.98 v 0 0 0 0 c 0.08,-0.84 0.24,-1.67 0.4,-2.59"
         style="fill:#61b23b;fill-opacity:1;fill-rule:nonzero;stroke:none"
         id="path60" />
      <path
         d="m 2305.98,1903.35 c 0.01,0.02 0.03,0.04 0.04,0.06 1.24,0.31 2.25,0.44 3.07,0.6 -0.84,-0.17 -1.87,-0.33 -3.11,-0.66"
         style="fill:#61b23b;fill-opacity:1;fill-rule:nonzero;stroke:none"
         id="path62" />
      <path
         d="m 2310.64,1904.51 c 0.13,0.07 0.25,0.16 0.37,0.26 1.08,0.9 2.19,1.77 3.31,2.64 -1.11,-0.87 -2.22,-1.75 -3.3,-2.64 -0.12,-0.1 -0.24,-0.19 -0.38,-0.26 m 5.38,11.92 c 0.89,1.2 1.74,2.41 2.57,3.63 9.81,14.53 16.37,29.91 20.33,45.86 -3.95,-15.93 -10.49,-31.3 -20.3,-45.82 -0.84,-1.24 -1.7,-2.46 -2.6,-3.67"
         style="fill:#61b23b;fill-opacity:1;fill-rule:nonzero;stroke:none"
         id="path64" />
      <path
         d="m 2332.78,1923.32 c 0.17,0.2 0.34,0.41 0.51,0.61 21.32,25.67 29.71,56.15 29.71,88.52 v 0 c 0,0.91 0,1.82 -0.02,2.74 -0.21,15.38 -1.26,30.82 -4.3,45.98 3.06,-15.15 4.11,-30.58 4.33,-45.95 0.02,-0.91 0.02,-1.83 0.02,-2.74 0,-32.42 -8.45,-62.9 -29.71,-88.51 -0.18,-0.22 -0.36,-0.43 -0.54,-0.65"
         style="fill:#61b23b;fill-opacity:1;fill-rule:nonzero;stroke:none"
         id="path66" />
      <path
         d="m 2426.23,1928.49 c 0,0.01 0,0.02 0.01,0.03 -0.01,-0.01 -0.01,-0.02 -0.01,-0.03"
         style="fill:#61b23b;fill-opacity:1;fill-rule:nonzero;stroke:none"
         id="path68" />
      <path
         d="m 2426.24,1928.53 c 0.28,1.06 0.54,2.12 0.8,3.19 2.7,11.14 5.4,22.29 8.56,33.31 -3.13,-11.03 -5.86,-22.19 -8.56,-33.34 -0.26,-1.06 -0.52,-2.11 -0.8,-3.16"
         style="fill:#61b23b;fill-opacity:1;fill-rule:nonzero;stroke:none"
         id="path70" />
      <path
         d="m 2467.71,1934.32 c 5.25,18.33 7.88,37.08 7.89,56.27 v 0 c 0,5.88 -0.24,11.8 -0.73,17.77 -6.17,76.84 -38.09,141.78 -90.61,197.23 v 0 c -0.12,0.13 -0.25,0.26 -0.37,0.39 -0.03,0.03 -0.07,0.07 -0.1,0.1 -0.09,0.1 -0.19,0.2 -0.28,0.3 -0.04,0.04 -0.07,0.07 -0.11,0.11 -0.09,0.1 -0.19,0.2 -0.28,0.3 -0.03,0.03 -0.06,0.06 -0.09,0.09 -0.12,0.13 -0.24,0.25 -0.36,0.37 0,0.01 -0.01,0.02 -0.01,0.02 -0.27,0.28 -0.53,0.55 -0.8,0.83 v 0 c -9.89,10.21 -20.41,19.46 -31.46,27.9 11.97,-9.14 23.32,-19.21 33.9,-30.39 52.46,-55.5 84.42,-120.42 90.61,-197.29 0.47,-5.83 0.7,-11.62 0.71,-17.38 0.01,-19.3 -2.61,-38.19 -7.91,-56.62"
         style="fill:#61b23b;fill-opacity:1;fill-rule:nonzero;stroke:none"
         id="path72" />
      <path
         d="m 2401.91,1953.03 c 3.8,12.29 5.83,24.95 5.84,38.01 v 0 c 0.01,6.12 -0.43,12.34 -1.33,18.65 -0.05,0.36 -0.07,0.72 -0.08,1.09 0,2.48 0.98,5.26 1.67,8.91 -0.66,-3.63 -1.63,-6.36 -1.63,-8.82 0,-0.4 0.02,-0.78 0.08,-1.17 0.88,-6.19 1.32,-12.29 1.32,-18.31 0.02,-13.19 -2.02,-25.95 -5.87,-38.36"
         style="fill:#61b23b;fill-opacity:1;fill-rule:nonzero;stroke:none"
         id="path74" />
      <path
         d="m 2437.14,1970.03 c 1.06,2.15 4.01,3.75 6,5.71 0.2,-0.36 0.41,-0.72 0.63,-1.07 -0.22,0.34 -0.43,0.69 -0.64,1.04 -1.95,-1.91 -4.88,-3.53 -5.99,-5.68"
         style="fill:#61b23b;fill-opacity:1;fill-rule:nonzero;stroke:none"
         id="path76" />
      <path
         d="m 2379.59,1999.22 c 0.04,1.99 0.06,3.98 0.06,5.97 0,15.85 -1.3,31.63 -3.97,47.26 2.67,-15.52 3.97,-31.2 3.98,-46.95 0,-2.09 -0.03,-4.19 -0.07,-6.28"
         style="fill:#61b23b;fill-opacity:1;fill-rule:nonzero;stroke:none"
         id="path78" />
      <path
         d="m 2417.75,2005.46 c -0.48,3.09 -1.55,6.18 -3.66,9.08 2.11,-2.89 3.19,-5.99 3.66,-9.08"
         style="fill:#61b23b;fill-opacity:1;fill-rule:nonzero;stroke:none"
         id="path80" />
      <path
         d="m 2353,2084.08 c 0.43,2.36 2.22,5.19 3.06,7.7 v 0 c -0.82,-2.5 -2.6,-5.33 -3.06,-7.7"
         style="fill:#61b23b;fill-opacity:1;fill-rule:nonzero;stroke:none"
         id="path82" />
      <path
         d="m 2192.65,2241.65 c -1.84,0.94 -3.69,1.86 -5.56,2.77 -31.71,15.47 -65.01,26.13 -98.78,35.48 33.78,-9.34 67.08,-19.99 98.8,-35.48 v 0 c 1.86,-0.91 3.71,-1.83 5.54,-2.77"
         style="fill:#61b23b;fill-opacity:1;fill-rule:nonzero;stroke:none"
         id="path84" />
      <path
         d="m 1819.63,2348.27 c -14.34,4.09 -28.62,8.38 -42.83,12.94 -2.31,0.74 -4.61,1.49 -6.9,2.24 2.29,-0.74 4.61,-1.48 6.92,-2.22 14.21,-4.56 28.49,-8.87 42.81,-12.96"
         style="fill:#61b23b;fill-opacity:1;fill-rule:nonzero;stroke:none"
         id="path86" />
      <path
         d="m 1658.59,2408.95 c -19.25,9.91 -38,20.92 -56.13,33.3 -26.06,17.8 -48.44,38.54 -67.72,61.8 19.29,-23.26 41.67,-44 67.74,-61.79 18.12,-12.38 36.86,-23.39 56.11,-33.31 m 46.68,84.05 c -58.79,38.76 -106.1,87.75 -143.22,146.12 37.14,-58.35 84.46,-107.34 143.22,-146.12"
         style="fill:#61b23b;fill-opacity:1;fill-rule:nonzero;stroke:none"
         id="path88" />
      <path
         d="m 1453.63,2658.78 c -18.59,54.18 -30.5,110.15 -36.16,167.84 -1.52,15.54 -2.21,31.03 -2.2,46.49 0,2.94 0.03,5.88 0.08,8.82 -0.31,-18.37 0.32,-36.79 2.14,-55.28 5.66,-57.73 17.57,-113.71 36.14,-167.87 m 26.91,186.96 c -1.09,4.35 -2.16,8.7 -3.24,13.04 -12.4,50.3 -20.46,100.89 -23.04,151.99 2.6,-51.11 10.66,-101.72 23.05,-151.99 1.07,-4.35 2.14,-8.69 3.23,-13.04"
         style="fill:#61b23b;fill-opacity:1;fill-rule:nonzero;stroke:none"
         id="path90" />
      <path
         d="m 1455.97,3110.61 c 0.11,7.37 -0.12,14.55 -0.09,21.06 0,-0.36 0,-0.73 0,-1.09 0,-4.83 0.12,-10.01 0.12,-15.34 0.01,-1.53 0,-3.08 -0.03,-4.63"
         style="fill:#61b23b;fill-opacity:1;fill-rule:nonzero;stroke:none"
         id="path92" />
      <path
         d="m 1454.96,3130.14 c 0.41,1.22 0.81,2.18 0.92,2.52 0,-0.01 0,-0.02 0,-0.02 -0.1,-0.35 -0.5,-1.29 -0.92,-2.5"
         style="fill:#61b23b;fill-opacity:1;fill-rule:nonzero;stroke:none"
         id="path94" />
      <path
         d="m 2342.98,2026.46 c -0.02,0.18 -0.03,0.37 -0.05,0.56 0.02,-0.19 0.03,-0.37 0.05,-0.56 m -0.06,0.68 c -0.01,0.15 -0.03,0.3 -0.04,0.45 0.01,-0.15 0.03,-0.3 0.04,-0.45 m -0.05,0.57 c -0.03,0.39 -0.07,0.77 -0.1,1.15 0.03,-0.38 0.07,-0.76 0.1,-1.15 m -0.11,1.18 c -0.01,0.19 -0.03,0.37 -0.05,0.56 0.02,-0.19 0.04,-0.37 0.05,-0.56 m -0.05,0.6 c -0.06,0.6 -0.11,1.19 -0.17,1.78 0.06,-0.59 0.11,-1.18 0.17,-1.78 m -0.17,1.79 c -0.48,4.78 -1.05,9.5 -1.73,14.14 0.68,-4.64 1.25,-9.36 1.73,-14.14 m -1.74,14.16 c -0.08,0.57 -0.17,1.14 -0.25,1.71 0.08,-0.57 0.17,-1.14 0.25,-1.71 m -0.26,1.77 c -0.03,0.16 -0.05,0.34 -0.08,0.5 0.03,-0.16 0.05,-0.34 0.08,-0.5 m -0.09,0.56 c -0.05,0.37 -0.11,0.73 -0.17,1.09 0.06,-0.36 0.12,-0.72 0.17,-1.09 m -0.19,1.21 c -0.02,0.14 -0.04,0.28 -0.06,0.42 0.02,-0.14 0.04,-0.28 0.06,-0.42 m -0.09,0.56 c -0.02,0.15 -0.04,0.29 -0.07,0.44 0.03,-0.15 0.05,-0.29 0.07,-0.44 m -0.08,0.53 c -0.03,0.17 -0.06,0.34 -0.09,0.51 0.03,-0.17 0.06,-0.34 0.09,-0.51 m -0.12,0.69 c -0.02,0.11 -0.03,0.22 -0.05,0.33 0.02,-0.11 0.04,-0.22 0.05,-0.33 m -0.09,0.55 c -0.02,0.11 -0.03,0.2 -0.05,0.3 0.02,-0.1 0.03,-0.19 0.05,-0.3 m -0.09,0.52 c -0.02,0.15 -0.04,0.29 -0.07,0.43 0.03,-0.14 0.05,-0.28 0.07,-0.43 m -0.12,0.74 c -0.01,0.08 -0.03,0.15 -0.04,0.22 0.01,-0.07 0.03,-0.14 0.04,-0.22 m -0.09,0.53 c -0.01,0.05 -0.02,0.12 -0.03,0.17 0.01,-0.06 0.02,-0.11 0.03,-0.17 m -0.09,0.51 c 0,0.02 -0.01,0.03 -0.01,0.05 0,-0.02 0.01,-0.04 0.01,-0.05 m -0.23,1.29 c -0.01,0.02 -0.01,0.03 -0.01,0.05 0,-0.02 0,-0.03 0.01,-0.05 m -94.49,154.27 c -15.71,12.04 -33.12,22.84 -52.12,32.48 12.85,-6.51 24.98,-13.57 36.35,-21.17 5.22,-3.5 10.28,-7.12 15.18,-10.86 v 0 c 0.19,-0.15 0.39,-0.3 0.59,-0.45"
         style="fill:#4dca36;fill-opacity:1;fill-rule:nonzero;stroke:none"
         id="path96" />
      <path
         d="m 2342.94,2241.54 c -0.01,0 -0.02,0.01 -0.03,0.01 0.01,0 0.02,-0.01 0.03,-0.01 m -0.33,0.23 c -17.48,12.52 -36.14,23.19 -55.58,32.59 -3.38,1.65 -6.78,3.26 -10.22,4.84 23.1,-10.54 45.27,-22.72 65.8,-37.43 m -79.13,43.3 v 0 c -92.1,39.04 -186.87,70.36 -283.46,96.16 -60.42,16.06 -119.73,34.64 -176.71,59.68 l -0.02,-0.05 c -21.25,9.31 -42.18,19.53 -62.74,30.85 -12.19,6.71 -23.95,13.81 -35.28,21.29 11.34,-7.48 23.1,-14.58 35.31,-21.29 20.51,-11.27 41.45,-21.54 62.73,-30.8 56.98,-25.04 116.29,-43.62 176.71,-59.68 96.59,-25.8 191.36,-57.12 283.46,-96.16 v 0"
         style="fill:#4dca36;fill-opacity:1;fill-rule:nonzero;stroke:none"
         id="path98" />
      <path
         d="m 1766.34,2364.6 v 0 c -37.1,12.3 -73.24,26.56 -107.75,44.35 34.52,-17.78 70.67,-32.03 107.76,-44.33 l -0.01,-0.02 m -231.6,139.45 c -21.59,26.04 -39.3,55.24 -53.97,87 -10.26,22.26 -19.29,44.83 -27.14,67.73 7.85,-22.9 16.9,-45.48 27.17,-67.74 14.65,-31.76 32.36,-60.95 53.94,-86.99 m 27.31,135.07 c -12.51,19.66 -23.87,40.38 -34.11,62.12 -21.72,46.1 -35.1,95.16 -47.4,144.5 12.31,-49.31 25.7,-98.39 47.42,-144.49 10.24,-21.75 21.59,-42.47 34.09,-62.13"
         style="fill:#4dca36;fill-opacity:1;fill-rule:nonzero;stroke:none"
         id="path100" />
      <path
         d="m 1415.35,2881.93 c 0.61,35.76 4.79,71.32 10.81,106.72 7.96,46.44 18.53,92.44 28,138.7 0.21,0.99 0.51,1.96 0.8,2.79 -0.29,-0.84 -0.57,-1.81 -0.78,-2.8 -9.47,-46.21 -20.07,-92.24 -27.99,-138.72 -6.02,-35.36 -10.22,-70.92 -10.84,-106.69"
         style="fill:#4dca36;fill-opacity:1;fill-rule:nonzero;stroke:none"
         id="path102" />
      <path
         d="m 1454.26,3010.77 c -0.6,11.84 -0.91,23.69 -0.91,35.58 0.01,17.91 0.7,35.89 2.15,53.93 0.28,3.45 0.41,6.91 0.47,10.33 -0.05,-3.43 -0.18,-6.89 -0.44,-10.35 -2.41,-30.02 -2.76,-59.84 -1.27,-89.49"
         style="fill:#4dca36;fill-opacity:1;fill-rule:nonzero;stroke:none"
         id="path104" />
      <path
         d="m 1455.88,3131.67 c 0,0.32 0,0.65 0,0.97 v 0 c 0,-0.32 0,-0.65 0,-0.97"
         style="fill:#4dca36;fill-opacity:1;fill-rule:nonzero;stroke:none"
         id="path106" />
      <path
         d="m 2383.89,2205.98 c -0.03,0.03 -0.07,0.07 -0.1,0.1 0.03,-0.03 0.07,-0.07 0.1,-0.1 m -0.38,0.4 c -0.03,0.04 -0.07,0.07 -0.11,0.11 0.04,-0.04 0.07,-0.07 0.11,-0.11 m -0.39,0.41 c -0.03,0.03 -0.06,0.06 -0.09,0.09 0.03,-0.03 0.06,-0.06 0.09,-0.09 m -0.45,0.46 c 0,0.01 -0.01,0.02 -0.01,0.02 0,0 0.01,-0.01 0.01,-0.02 m -0.81,0.85 v 0 0 M 2229,2220.48 c -11.37,7.6 -23.5,14.66 -36.35,21.17 -1.83,0.94 -3.68,1.86 -5.54,2.77 14.93,-7.26 28.91,-15.24 41.89,-23.94 m -462.65,144.14 c -37.09,12.3 -73.24,26.55 -107.76,44.33 -19.25,9.92 -37.99,20.93 -56.11,33.31 -26.07,17.79 -48.45,38.53 -67.74,61.79 -21.58,26.04 -39.29,55.23 -53.94,86.99 -10.27,22.26 -19.32,44.84 -27.17,67.74 -18.57,54.16 -30.48,110.14 -36.14,167.87 -1.82,18.49 -2.45,36.91 -2.14,55.28 0.62,35.77 4.82,71.33 10.84,106.69 7.92,46.48 18.52,92.51 27.99,138.72 0.21,0.99 0.49,1.96 0.78,2.8 0.42,1.21 0.82,2.15 0.92,2.5 0,-0.32 0,-0.65 0,-0.97 -0.03,-6.51 0.2,-13.69 0.09,-21.06 -0.06,-3.42 -0.19,-6.88 -0.47,-10.33 -1.45,-18.04 -2.14,-36.02 -2.15,-53.93 0,-11.89 0.31,-23.74 0.91,-35.58 2.58,-51.1 10.64,-101.69 23.04,-151.99 1.08,-4.34 2.15,-8.69 3.24,-13.04 12.3,-49.34 25.68,-98.4 47.4,-144.5 10.24,-21.74 21.6,-42.46 34.11,-62.12 37.12,-58.37 84.43,-107.36 143.22,-146.12 11.33,-7.48 23.09,-14.58 35.28,-21.29 20.56,-11.32 41.49,-21.54 62.74,-30.85 l -36.94,-76.24"
         style="fill:#379718;fill-opacity:1;fill-rule:nonzero;stroke:none"
         id="path108" />
      <path
         d="m 2276.81,2279.2 c -4.41,2.02 -8.85,3.97 -13.33,5.87 4.48,-1.88 8.93,-3.84 13.33,-5.87"
         style="fill:#5cc34f;fill-opacity:1;fill-rule:nonzero;stroke:none"
         id="path110" />
      <path
         d="m 2244.18,2209.62 v 0 c -4.9,3.74 -9.96,7.36 -15.18,10.86 5.22,-3.5 10.29,-7.11 15.19,-10.84 l -0.01,-0.02"
         style="fill:#34a61f;fill-opacity:1;fill-rule:nonzero;stroke:none"
         id="path112" />
      <path
         d="m 2342.61,2241.77 c -17.48,12.52 -36.14,23.19 -55.58,32.59 v 0 c -7.76,3.75 -15.63,7.3 -23.59,10.68 -92.03,39.05 -186.83,70.38 -283.41,96.15 -60.4,16.11 -119.7,34.66 -176.74,59.67 l 0.02,0.05 c 56.98,-25.04 116.29,-43.62 176.71,-59.68 96.59,-25.8 191.36,-57.12 283.46,-96.16 v 0 c 4.48,-1.9 8.92,-3.85 13.33,-5.87 3.44,-1.58 6.84,-3.19 10.22,-4.84 19.44,-9.4 38.1,-20.07 55.58,-32.59 v 0"
         style="fill:#34a61f;fill-opacity:1;fill-rule:nonzero;stroke:none"
         id="path114" />
      <path
         d="m 2088.31,2279.9 c -15.45,4.27 -31,8.27 -46.55,12.33 -73.87,19.34 -148.7,35.03 -222.13,56.04 73.45,-20.97 148.26,-36.69 222.14,-56.02 15.53,-4.07 31.09,-8.08 46.54,-12.35 m -318.41,83.55 c -1.19,0.38 -2.38,0.77 -3.56,1.15 l 0.01,0.02 c 1.18,-0.39 2.36,-0.78 3.55,-1.17"
         style="fill:#34a61f;fill-opacity:1;fill-rule:nonzero;stroke:none"
         id="path116" />
      <path
         d="m 2244.19,2209.64 c -4.9,3.73 -9.97,7.34 -15.19,10.84 -12.98,8.7 -26.96,16.68 -41.89,23.94 v 0 c -31.72,15.49 -65.02,26.14 -98.8,35.48 -15.45,4.27 -31.01,8.28 -46.54,12.35 -73.88,19.33 -148.69,35.05 -222.14,56.02 -14.32,4.09 -28.6,8.4 -42.81,12.96 -2.31,0.74 -4.63,1.48 -6.92,2.22 -1.19,0.39 -2.37,0.78 -3.55,1.17 l 36.94,76.24 c 57.04,-25.01 116.34,-43.56 176.74,-59.67 96.58,-25.77 191.38,-57.1 283.41,-96.15 7.96,-3.38 15.83,-6.93 23.59,-10.68 l -42.84,-64.72"
         style="fill:#257c0e;fill-opacity:1;fill-rule:nonzero;stroke:none"
         id="path118" />
      <path
         d="m 2342.93,2027.02 c 0,0.04 -0.01,0.08 -0.01,0.12 0,-0.04 0.01,-0.08 0.01,-0.12 m -0.05,0.57 c 0,0.05 -0.01,0.08 -0.01,0.12 0,-0.04 0.01,-0.07 0.01,-0.12 m -0.11,1.27 c 0,0.01 -0.01,0.02 -0.01,0.03 0,-0.01 0.01,-0.02 0.01,-0.03 m -0.06,0.59 c 0,0.01 0,0.03 0,0.04 0,-0.01 0,-0.03 0,-0.04 m -0.17,1.82 c 0,0 0,0 0,0.01 v -0.01 m -1.73,14.15 -0.01,0.02 c 0,-0.01 0,-0.01 0.01,-0.02 m -0.26,1.73 c -0.01,0.02 -0.01,0.03 -0.01,0.06 0,-0.02 0.01,-0.05 0.01,-0.06 m -0.09,0.56 c 0,0.02 0,0.04 -0.01,0.06 0.01,-0.02 0.01,-0.04 0.01,-0.06 m -0.18,1.15 c 0,0.04 -0.01,0.08 -0.02,0.12 0.01,-0.04 0.02,-0.08 0.02,-0.12 m -0.08,0.54 c -0.01,0.05 -0.02,0.09 -0.03,0.14 0.01,-0.05 0.02,-0.1 0.03,-0.14 m -0.1,0.58 c 0,0.03 -0.01,0.07 -0.01,0.09 0,-0.03 0.01,-0.06 0.01,-0.09 m -0.1,0.6 c -0.01,0.06 -0.02,0.12 -0.03,0.18 0.01,-0.06 0.02,-0.12 0.03,-0.18 m -0.08,0.51 c -0.01,0.08 -0.03,0.15 -0.04,0.22 0.01,-0.07 0.03,-0.15 0.04,-0.22 m -0.09,0.52 c -0.01,0.08 -0.02,0.15 -0.04,0.22 0.02,-0.07 0.03,-0.14 0.04,-0.22 m -0.11,0.65 c -0.02,0.11 -0.03,0.21 -0.05,0.31 0.02,-0.1 0.03,-0.2 0.05,-0.31 m -0.09,0.53 c -0.02,0.11 -0.03,0.21 -0.05,0.31 0.02,-0.1 0.03,-0.2 0.05,-0.31 m -0.08,0.48 c -0.02,0.12 -0.04,0.22 -0.06,0.34 0.02,-0.12 0.04,-0.23 0.06,-0.34 m -0.07,0.39 c -0.07,0.41 -0.15,0.83 -0.22,1.24 0.07,-0.41 0.15,-0.83 0.22,-1.24 m -0.23,1.29 c -11.79,65.29 -44.55,115.95 -94.48,154.22 49.93,-38.24 82.68,-88.9 94.48,-154.22 M 2350.4,2236 c -0.52,0.4 -1.03,0.79 -1.56,1.19 -1.95,1.47 -3.92,2.92 -5.9,4.35 2.51,-1.81 5,-3.65 7.46,-5.54 m -7.49,5.55 c -0.1,0.08 -0.2,0.15 -0.3,0.22 0.1,-0.07 0.2,-0.14 0.3,-0.22"
         style="fill:#3ea02e;fill-opacity:1;fill-rule:nonzero;stroke:none"
         id="path120" />
      <path
         d="m 2384.26,2205.59 c -0.12,0.13 -0.25,0.26 -0.37,0.39 0.12,-0.13 0.25,-0.26 0.37,-0.39 m -0.47,0.49 c -0.09,0.1 -0.19,0.2 -0.28,0.3 0.09,-0.1 0.19,-0.2 0.28,-0.3 m -0.39,0.41 c -0.09,0.1 -0.19,0.2 -0.28,0.3 0.09,-0.1 0.19,-0.2 0.28,-0.3 m -0.37,0.39 c -0.12,0.13 -0.24,0.25 -0.36,0.37 0.12,-0.12 0.24,-0.24 0.36,-0.37 m -0.37,0.39 c -0.27,0.28 -0.53,0.55 -0.8,0.83 0.27,-0.28 0.53,-0.55 0.8,-0.83 m -0.8,0.83 c -10.35,10.68 -21.4,20.32 -33.02,29.09 0.53,-0.4 1.04,-0.79 1.56,-1.19 11.05,-8.44 21.57,-17.69 31.46,-27.9"
         style="fill:#2c7813;fill-opacity:1;fill-rule:nonzero;stroke:none"
         id="path122" />
      <path
         d="m 2375.36,1868.81 c -3.25,0 -6.36,0.61 -9.13,1.86 0,0 0.01,0.01 0.02,0.02 2.78,-1.24 5.89,-1.84 9.13,-1.84 5.72,0 11.87,1.86 17.41,5.36 -5.55,-3.52 -11.71,-5.4 -17.43,-5.4 m 44.06,2.58 c -0.14,0 -0.31,0.03 -0.49,0.08 0.14,-0.03 0.27,-0.06 0.39,-0.06 0.07,0 0.13,0.01 0.2,0.03 0.41,0.11 0.81,0.24 1.22,0.37 -0.4,-0.14 -0.8,-0.28 -1.18,-0.41 -0.05,-0.01 -0.09,-0.01 -0.14,-0.01 m -0.98,0.23 c -0.26,0.07 -0.55,0.16 -0.9,0.22 0.01,0.01 0.01,0.02 0.02,0.03 0.34,-0.09 0.63,-0.17 0.88,-0.25 m 13.51,6.19 c 13.42,8.93 22.91,21.56 28.98,36.75 2.61,6.53 4.87,13.11 6.78,19.76 -1.9,-6.65 -4.16,-13.25 -6.75,-19.79 -6.13,-15.16 -15.59,-27.8 -29.01,-36.72 m -92.71,5.36 c -3.19,0 -7.04,1.88 -10.4,2.53 0,0.01 0,0.01 0,0.02 3.38,-0.68 7.21,-2.53 10.34,-2.53 0.73,0 1.42,0.1 2.07,0.34 20.79,7.79 37.36,21 48.27,40.75 5.18,9.38 9.35,18.95 12.39,28.75 -3.03,-9.8 -7.19,-19.37 -12.36,-28.73 -10.93,-19.76 -27.52,-32.99 -48.28,-40.81 -0.63,-0.22 -1.32,-0.32 -2.03,-0.32 m -6.43,9.12 c 1.15,1.05 2.3,2.11 3.43,3.19 27.04,25.09 40.85,56.42 42.92,92.91 0.21,3.61 0.35,7.22 0.43,10.83 -0.07,-3.6 -0.21,-7.2 -0.41,-10.8 -2.05,-36.5 -15.93,-67.83 -42.9,-92.97 -1.15,-1.06 -2.31,-2.12 -3.47,-3.16"
         style="fill:#238812;fill-opacity:1;fill-rule:nonzero;stroke:none"
         id="path124" />
      <path
         d="m 2416.26,1902.54 c 4.3,8.13 7.55,16.82 9.97,25.95 -2.42,-9.13 -5.66,-17.83 -9.97,-25.95 m -110.31,0.85 c 3.67,4.84 7.04,8.93 10.07,13.04 -3,-4.1 -6.33,-8.19 -10,-13.02 -0.02,-0.01 -0.05,-0.02 -0.07,-0.02"
         style="fill:#238812;fill-opacity:1;fill-rule:nonzero;stroke:none"
         id="path126" />
      <path
         d="m 2309.09,1904.01 c 0.62,0.13 1.13,0.27 1.55,0.5 -0.42,-0.24 -0.93,-0.37 -1.55,-0.5 m 5.23,3.4 c 6.44,5.05 13.23,9.84 18.46,15.91 -5.19,-6.08 -11.98,-10.86 -18.46,-15.91 m 111.92,21.11 c 0,0.01 0,0.01 0,0.01 0,0 0,0 0,-0.01 m -11.48,28.37 c 1.92,13.72 2.61,27.74 3.25,41.6 0.05,0.77 0.07,1.55 0.07,2.34 v 0 c 0,1.53 -0.09,3.08 -0.33,4.63 0.26,-1.61 0.35,-3.22 0.35,-4.81 0,-0.72 -0.02,-1.44 -0.05,-2.15 -0.67,-13.87 -1.34,-27.88 -3.29,-41.61"
         style="fill:#238812;fill-opacity:1;fill-rule:nonzero;stroke:none"
         id="path128" />
      <path
         d="m 2447.17,1959.36 c 0.29,1.89 0.62,3.87 0.62,5.77 v 0 c 0,0.89 -0.07,1.76 -0.26,2.58 -0.56,2.49 -2.33,4.66 -3.76,6.96 1.46,-2.27 3.22,-4.47 3.77,-6.94 0.2,-0.86 0.27,-1.76 0.27,-2.67 0,-1.87 -0.33,-3.82 -0.64,-5.7"
         style="fill:#238812;fill-opacity:1;fill-rule:nonzero;stroke:none"
         id="path130" />
      <path
         d="m 2435.6,1965.03 c 0.41,1.42 0.82,2.85 1.24,4.27 0.07,0.25 0.17,0.49 0.3,0.73 -0.12,-0.23 -0.21,-0.47 -0.28,-0.71 -0.43,-1.43 -0.84,-2.86 -1.26,-4.29 m -96.68,0.89 c 3.38,13.61 4.86,27.64 4.85,41.91 v 0 c 0,6.17 -0.27,12.38 -0.79,18.63 v 0 c -0.02,0.19 -0.03,0.37 -0.05,0.56 0,0.04 -0.01,0.08 -0.01,0.12 -0.01,0.15 -0.03,0.3 -0.04,0.45 0,0.05 -0.01,0.08 -0.01,0.12 -0.03,0.39 -0.07,0.77 -0.1,1.15 0,0.01 -0.01,0.02 -0.01,0.03 -0.01,0.19 -0.03,0.37 -0.05,0.56 0,0.01 0,0.03 0,0.04 -0.06,0.6 -0.11,1.19 -0.17,1.78 v 0.01 c -0.48,4.78 -1.05,9.5 -1.73,14.14 -0.01,0.01 -0.01,0.01 -0.01,0.02 -0.08,0.57 -0.17,1.14 -0.25,1.71 0,0.01 -0.01,0.04 -0.01,0.06 -0.03,0.16 -0.05,0.34 -0.08,0.5 0,0.02 0,0.04 -0.01,0.06 -0.05,0.37 -0.11,0.73 -0.17,1.09 0,0.04 -0.01,0.08 -0.02,0.12 -0.02,0.14 -0.04,0.28 -0.06,0.42 -0.01,0.04 -0.02,0.09 -0.03,0.14 -0.02,0.15 -0.04,0.29 -0.07,0.44 0,0.03 -0.01,0.06 -0.01,0.09 -0.03,0.17 -0.06,0.34 -0.09,0.51 -0.01,0.06 -0.02,0.12 -0.03,0.18 -0.01,0.11 -0.03,0.22 -0.05,0.33 -0.01,0.07 -0.03,0.15 -0.04,0.22 -0.02,0.11 -0.03,0.2 -0.05,0.3 -0.01,0.08 -0.02,0.15 -0.04,0.22 -0.02,0.15 -0.04,0.29 -0.07,0.43 -0.02,0.11 -0.03,0.21 -0.05,0.31 -0.01,0.08 -0.03,0.15 -0.04,0.22 -0.02,0.11 -0.03,0.21 -0.05,0.31 -0.01,0.06 -0.02,0.11 -0.03,0.17 -0.02,0.11 -0.04,0.22 -0.06,0.34 0,0.01 -0.01,0.03 -0.01,0.05 -0.07,0.41 -0.15,0.83 -0.22,1.24 -0.01,0.02 -0.01,0.03 -0.01,0.05 -11.8,65.32 -44.55,115.98 -94.48,154.22 -0.2,0.15 -0.4,0.3 -0.59,0.45 l 0.01,0.02 c 57.33,-43.67 92.12,-103.6 98.79,-183.19 0.52,-6.25 0.8,-12.47 0.8,-18.64 0,-14.26 -1.48,-28.28 -4.86,-41.89"
         style="fill:#238812;fill-opacity:1;fill-rule:nonzero;stroke:none"
         id="path132" />
      <path
         d="m 2414.09,2014.54 c -1.45,2 -3.4,3.9 -5.99,5.65 -0.03,-0.17 -0.06,-0.34 -0.09,-0.5 0.03,0.17 0.06,0.35 0.09,0.53 2.59,-1.76 4.54,-3.67 5.99,-5.68 m -38.41,37.91 c -0.94,5.46 -2.05,10.9 -3.33,16.31 -1.46,6.24 -3.85,12.49 -7.08,17.98 -1.5,2.62 -6.03,3.41 -9.21,5.04 v 0.01 c 3.18,-1.62 7.71,-2.44 9.24,-5.03 3.23,-5.5 5.61,-11.75 7.07,-17.99 1.28,-5.42 2.38,-10.86 3.31,-16.32 m -17,8.72 c -1.41,6.98 -3.24,13.89 -5.6,20.72 -0.13,0.36 -0.18,0.74 -0.18,1.15 0,0.33 0.04,0.68 0.1,1.04 -0.06,-0.34 -0.09,-0.67 -0.09,-0.99 v 0 c 0,-0.43 0.06,-0.83 0.21,-1.21 2.35,-6.83 4.16,-13.74 5.56,-20.71"
         style="fill:#238812;fill-opacity:1;fill-rule:nonzero;stroke:none"
         id="path134" />
      <path
         d="m 2348.84,2237.19 c -19.24,14.5 -40.06,26.64 -61.81,37.17 v 0 c 19.44,-9.4 38.1,-20.07 55.58,-32.59 0.1,-0.07 0.2,-0.14 0.3,-0.22 0.01,0 0.02,-0.01 0.03,-0.01 1.98,-1.43 3.95,-2.88 5.9,-4.35"
         style="fill:#238812;fill-opacity:1;fill-rule:nonzero;stroke:none"
         id="path136" />
      <path
         d="m 2375.38,1868.85 c -3.24,0 -6.35,0.6 -9.13,1.84 5.33,4.57 10.82,8.81 15.82,13.55 17.38,16.68 25.97,38.22 30.7,60.97 0.78,3.86 1.44,7.76 1.99,11.68 1.95,13.73 2.62,27.74 3.29,41.61 0.03,0.71 0.05,1.43 0.05,2.15 0,1.59 -0.09,3.2 -0.35,4.81 -0.47,3.09 -1.55,6.19 -3.66,9.08 -1.45,2.01 -3.4,3.92 -5.99,5.68 -0.03,-0.18 -0.06,-0.36 -0.09,-0.53 -0.69,-3.65 -1.67,-6.43 -1.67,-8.91 v 0 c 0.01,-0.37 0.03,-0.73 0.08,-1.09 0.9,-6.31 1.34,-12.53 1.33,-18.65 -0.01,-13.06 -2.04,-25.72 -5.84,-38.01 -3.04,-9.8 -7.21,-19.37 -12.39,-28.75 -10.91,-19.75 -27.48,-32.96 -48.27,-40.75 -0.65,-0.24 -1.34,-0.34 -2.07,-0.34 -3.13,0 -6.96,1.85 -10.34,2.53 -0.16,0.92 -0.32,1.75 -0.4,2.59 1.46,1.34 2.92,2.66 4.37,3.98 1.16,1.04 2.32,2.1 3.47,3.16 26.97,25.14 40.85,56.47 42.9,92.97 0.2,3.6 0.34,7.2 0.41,10.8 0.04,2.09 0.07,4.19 0.07,6.28 v 0 c -0.01,15.75 -1.31,31.43 -3.98,46.95 -0.93,5.46 -2.03,10.9 -3.31,16.32 -1.46,6.24 -3.84,12.49 -7.07,17.99 -1.53,2.59 -6.06,3.41 -9.24,5.03 v -0.01 0 c -0.84,-2.51 -2.63,-5.34 -3.06,-7.7 -0.06,-0.36 -0.1,-0.71 -0.1,-1.04 0,-0.41 0.05,-0.79 0.18,-1.15 2.36,-6.83 4.19,-13.74 5.6,-20.72 3.04,-15.16 4.09,-30.6 4.3,-45.98 0.02,-0.92 0.02,-1.83 0.02,-2.74 0,-32.37 -8.39,-62.85 -29.71,-88.52 -0.17,-0.2 -0.34,-0.41 -0.51,-0.61 -5.23,-6.07 -12.02,-10.86 -18.46,-15.91 -1.12,-0.87 -2.23,-1.74 -3.31,-2.64 -0.12,-0.1 -0.24,-0.19 -0.37,-0.26 -0.42,-0.23 -0.93,-0.37 -1.55,-0.5 -0.82,-0.16 -1.83,-0.29 -3.07,-0.6 3.67,4.83 7,8.92 10,13.02 0.9,1.21 1.76,2.43 2.6,3.67 9.81,14.52 16.35,29.89 20.3,45.82 3.38,13.61 4.86,27.63 4.86,41.89 0,6.17 -0.28,12.39 -0.8,18.64 -6.67,79.59 -41.46,139.52 -98.79,183.19 l 42.84,64.72 c 21.75,-10.53 42.57,-22.67 61.81,-37.17 11.62,-8.77 22.67,-18.41 33.02,-29.09 v 0 c 0.27,-0.28 0.53,-0.55 0.8,-0.83 0,0 0.01,-0.01 0.01,-0.02 0.12,-0.12 0.24,-0.24 0.36,-0.37 0.03,-0.03 0.06,-0.06 0.09,-0.09 0.09,-0.1 0.19,-0.2 0.28,-0.3 0.04,-0.04 0.08,-0.07 0.11,-0.11 0.09,-0.1 0.19,-0.2 0.28,-0.3 0.03,-0.03 0.07,-0.07 0.1,-0.1 0.12,-0.13 0.25,-0.26 0.37,-0.39 v 0 c 52.52,-55.45 84.44,-120.39 90.61,-197.23 0.49,-5.97 0.73,-11.89 0.73,-17.77 -0.01,-19.19 -2.64,-37.94 -7.89,-56.27 -1.91,-6.65 -4.17,-13.23 -6.78,-19.76 -6.07,-15.19 -15.56,-27.82 -28.98,-36.75 -2.75,-1.83 -5.67,-3.51 -8.77,-5.01 -0.79,-0.39 -1.62,-0.7 -2.44,-0.99 -0.41,-0.13 -0.81,-0.26 -1.22,-0.37 -0.07,-0.02 -0.13,-0.03 -0.2,-0.03 -0.12,0 -0.25,0.03 -0.39,0.06 -0.15,0.04 -0.31,0.1 -0.49,0.15 -0.25,0.08 -0.54,0.16 -0.88,0.25 18.87,25.9 24.59,56.12 29.47,86.6 0.04,0.29 0.09,0.59 0.14,0.89 0.31,1.88 0.64,3.83 0.64,5.7 0,0.91 -0.07,1.81 -0.27,2.67 -0.55,2.47 -2.31,4.67 -3.77,6.94 -0.22,0.35 -0.43,0.71 -0.63,1.07 -1.99,-1.96 -4.94,-3.56 -6,-5.71 -0.13,-0.24 -0.23,-0.48 -0.3,-0.73 -0.42,-1.42 -0.83,-2.85 -1.24,-4.27 -3.16,-11.02 -5.86,-22.17 -8.56,-33.31 -0.26,-1.07 -0.52,-2.13 -0.8,-3.19 0,0 0,0 0,-0.01 -0.01,-0.01 -0.01,-0.02 -0.01,-0.03 -2.42,-9.13 -5.67,-17.82 -9.97,-25.95 -4.32,-8.14 -9.7,-15.71 -16.4,-22.57 -2.17,-2.24 -4.55,-4.17 -7.07,-5.76 -5.54,-3.5 -11.69,-5.36 -17.41,-5.36"
         style="fill:#196608;fill-opacity:1;fill-rule:nonzero;stroke:none"
         id="path138" />
      <path
         d="m 2430.41,1009.08 c -0.26,0.26 -0.53,0.48 -0.82,0.64 -5.41,3.11 -11.35,6.74 -17.29,7.91 5.96,-1.16 11.92,-4.83 17.26,-7.88 0.3,-0.17 0.58,-0.4 0.85,-0.67"
         style="fill:#70c947;fill-opacity:1;fill-rule:nonzero;stroke:none"
         id="path140" />
      <path
         d="m 2387.36,1019.24 c -45.55,3.28 -90.58,10.75 -135.79,16.8 -79.91,10.68 -158.08,29.32 -235.25,52.16 -54.09,16.01 -106.56,36.79 -156.7,62.42 -107.12,54.77 -186.08,136.38 -228.41,250.34 -14.87,40.02 -20.88,82.29 -25.15,124.79 -1.84,18.26 -2.6,36.46 -2.59,54.64 0.02,38.57 3.49,77.01 7.49,115.46 0.19,1.8 0.56,3.59 0.91,5.37 0.2,0.98 0.53,1.94 1.28,4.58 11.94,-95.1 36.49,-184.1 82.57,-266.38 33.47,-59.79 79.19,-108.66 132.62,-151.16 65.92,-52.43 139.87,-90.82 214.82,-128.03 6.63,-3.29 13.29,-6.47 19.98,-9.52 l -76.91,-52.96 c 9.98,-3.37 20.05,-6.56 30.11,-9.51 77.19,-22.85 155.33,-41.5 235.23,-52.18 45.2,-6.04 90.27,-13.51 135.79,-16.82 m 122.67,52.43 c -12.12,0.2 -24.24,0.55 -36.35,1.04 12.12,-0.48 24.24,-0.82 36.38,-1.02 -0.01,-0.01 -0.02,-0.01 -0.03,-0.02 m -190.51,13.44 c -9.83,1.12 -19.67,2.3 -29.5,3.53 -20.99,2.64 -41.79,5.94 -62.35,9.99 20.56,-4.04 41.34,-7.34 62.33,-9.97 9.84,-1.23 19.68,-2.42 29.52,-3.55"
         style="fill:#70c947;fill-opacity:1;fill-rule:nonzero;stroke:none"
         id="path142" />
      <path
         d="m 2667.19,841.602 c -321.97,0 -215.2,84.617 -247.39,111.207 -11.94,9.871 -3.31,28.332 13.56,48.581 0.04,-0.32 0.06,-0.63 0.08,-0.92 0.16,-3.2 0.3,-6.392 0.44,-9.591 0.89,-21.367 1.42,-42.77 2.51,-64.129 0.33,-6.43 1.96,-12 4.74,-16.699 4.24,-7.242 11.21,-12.442 20.35,-15.621 1.66,-0.571 3.33,-1.141 5.01,-1.7 9.39,-3.179 18.91,-6.058 28.58,-8.019 44.92,-9.07 90.13,-13.902 135.73,-13.902 13.55,0 27.14,0.429 40.75,1.293 66.12,4.207 130.14,17.347 190.62,44.64 26.84,12.117 52.14,27.649 78.49,40.93 9.81,4.949 15.04,12.937 20.41,22.476 v 0 0 c -2.08,-0.148 -3.34,-0.109 -4.54,-0.347 -57.18,-11.59 -114.3,-23.461 -171.54,-34.75 -67.5,-13.321 -135.44,-23.692 -204.26,-26.903 -1.38,-0.066 -2.74,-0.097 -4.07,-0.097 -12.83,0 -22.97,3.031 -30.63,9.258 l 0.08,0.05 -0.25,0.172 c -8.1,6.629 -13.4,16.848 -16.14,30.84 -2.99,15.16 -4.28,30.809 -5.84,46.219 -2.09,20.58 -3.82,41.15 -5.73,61.93 -0.14,1.58 -0.28,3.16 -0.43,4.75 -0.61,0.04 -1.17,0.09 -1.7,0.14 -0.37,0.04 -0.73,0.08 -1.08,0.11 l -0.34,0.02 c -0.69,0.06 -1.35,0.1 -2,0.11 -0.84,0.01 -1.69,0.03 -2.54,0.04 14.33,11.19 24.41,18.39 24.41,18.39 19.72,-21.74 -13.53,-156.721 44.49,-156.721 3.55,0 7.44,0.5 11.71,1.571 78.81,19.73 412.62,53.992 412.62,53.992 0,0 -74.81,-137.024 -203.74,-143.57 -50.64,-2.582 -94.5,-3.75 -132.36,-3.75"
         style="fill:#309916;fill-opacity:1;fill-rule:nonzero;stroke:none"
         id="path144" />
      <path
         d="m 2630.8,870.809 c -45.6,0 -90.81,4.832 -135.73,13.902 -9.67,1.961 -19.19,4.84 -28.58,8.019 5.19,-1.738 10.45,-3.421 15.71,-4.871 l 63.83,39.45 c 7.66,-6.227 17.8,-9.258 30.63,-9.258 1.33,0 2.69,0.031 4.07,0.097 68.82,3.211 136.76,13.582 204.26,26.903 57.24,11.289 114.36,23.16 171.54,34.75 1.2,0.238 2.46,0.199 4.54,0.347 -5.37,-9.539 -10.6,-17.527 -20.41,-22.476 -26.35,-13.281 -51.65,-28.813 -78.49,-40.93 -60.48,-27.293 -124.5,-40.433 -190.62,-44.64 -13.61,-0.864 -27.2,-1.293 -40.75,-1.293"
         style="fill:#28820b;fill-opacity:1;fill-rule:nonzero;stroke:none"
         id="path146" />
      <path
         d="m 2441.13,910.051 c -2.78,4.699 -4.41,10.269 -4.74,16.699 -1.09,21.359 -1.62,42.762 -2.51,64.129 0.92,-21.367 1.42,-42.738 2.55,-64.109 0.32,-6.442 1.93,-12.008 4.7,-16.719 m 77.02,156.469 c -0.14,1.57 -0.29,3.15 -0.44,4.73 -0.59,0.05 -1.15,0.11 -1.69,0.16 0.53,-0.05 1.09,-0.1 1.7,-0.14 0.15,-1.59 0.29,-3.17 0.43,-4.75 m -3.55,5.02 -2.01,0.09 c -0.85,0.01 -1.71,0.02 -2.56,0.04 0.01,0.01 0.02,0.01 0.03,0.02 0.85,-0.01 1.7,-0.03 2.54,-0.04 0.65,-0.01 1.31,-0.05 2,-0.11"
         style="fill:#28820b;fill-opacity:1;fill-rule:nonzero;stroke:none"
         id="path148" />
      <path
         d="m 2433.36,1001.39 c -0.12,1.15 -0.36,2.44 -0.81,3.63 -0.51,1.63 -1.22,3.12 -2.14,4.06 1.64,-1.64 2.67,-4.96 2.96,-7.68 0,0 0,-0.01 -0.01,-0.01 m -21.06,16.24 c -1.03,0.21 -2.07,0.33 -3.11,0.37 -7.29,0.29 -14.56,0.71 -21.83,1.24 7.28,-0.53 14.57,-0.94 21.87,-1.23 1.02,-0.04 2.05,-0.17 3.07,-0.38 m 61.38,55.08 c -51.54,2.03 -102.9,6.5 -154.16,12.4 51.27,-5.88 102.63,-10.34 154.16,-12.4"
         style="fill:#5cc34f;fill-opacity:1;fill-rule:nonzero;stroke:none"
         id="path150" />
      <path
         d="m 2227.67,1098.63 c -56.62,11.13 -111.56,27.92 -164.53,52.08 l 0.07,0.05 c 52.92,-24.2 107.84,-40.99 164.46,-52.13"
         style="fill:#5cc34f;fill-opacity:1;fill-rule:nonzero;stroke:none"
         id="path152" />
      <path
         d="m 2433.37,1001.4 c -0.29,2.72 -1.32,6.04 -2.96,7.68 -0.27,0.27 -0.55,0.5 -0.85,0.67 -5.34,3.05 -11.3,6.72 -17.26,7.88 -1.02,0.21 -2.05,0.34 -3.07,0.38 -7.3,0.29 -14.59,0.7 -21.87,1.23 -45.52,3.31 -90.59,10.78 -135.79,16.82 -79.9,10.68 -158.04,29.33 -235.23,52.18 -10.06,2.95 -20.13,6.14 -30.11,9.51 l 76.91,52.96 c 52.97,-24.16 107.91,-40.95 164.53,-52.08 20.56,-4.05 41.36,-7.35 62.35,-9.99 9.83,-1.23 19.67,-2.41 29.5,-3.53 51.26,-5.9 102.62,-10.37 154.16,-12.4 12.11,-0.49 24.23,-0.84 36.35,-1.04 -22.65,-17.69 -55.88,-45.34 -76.66,-70.27"
         style="fill:#4ca529;fill-opacity:1;fill-rule:nonzero;stroke:none"
         id="path154" />
      <path
         d="m 2466.49,892.73 c -1.68,0.559 -3.35,1.129 -5.01,1.7 -9.14,3.179 -16.11,8.379 -20.35,15.621 4.25,-7.219 11.22,-12.41 20.35,-15.602 1.67,-0.578 3.34,-1.16 5.01,-1.719 m 79.54,34.579 c -8.17,6.64 -13.52,16.91 -16.31,31.023 -3.01,15.219 -4.27,30.816 -5.85,46.288 -2.11,20.55 -3.85,41.14 -5.72,61.9 1.91,-20.78 3.64,-41.35 5.73,-61.93 1.56,-15.41 2.85,-31.059 5.84,-46.219 2.74,-13.992 8.04,-24.211 16.14,-30.84 l 0.25,-0.172 -0.08,-0.05"
         style="fill:#207e0d;fill-opacity:1;fill-rule:nonzero;stroke:none"
         id="path156" />
      <path
         d="m 2433.88,990.879 c -0.14,3.199 -0.28,6.391 -0.44,9.591 -0.02,0.29 -0.04,0.6 -0.08,0.92 0.01,0 0.01,0.01 0.01,0.01 0.04,-0.32 0.07,-0.64 0.08,-0.94 0.15,-3.198 0.3,-6.39 0.43,-9.581 m 82.14,80.531 c -0.5,0.05 -0.97,0.09 -1.42,0.13 l 0.34,-0.02 c 0.35,-0.03 0.71,-0.07 1.08,-0.11"
         style="fill:#207e0d;fill-opacity:1;fill-rule:nonzero;stroke:none"
         id="path158" />
      <path
         d="m 2482.2,887.859 c -5.26,1.45 -10.52,3.133 -15.71,4.871 -1.67,0.559 -3.34,1.141 -5.01,1.719 -9.13,3.192 -16.1,8.383 -20.35,15.602 -2.77,4.711 -4.38,10.277 -4.7,16.719 -1.13,21.371 -1.63,42.742 -2.55,64.109 -0.13,3.191 -0.28,6.383 -0.43,9.581 -0.01,0.3 -0.04,0.62 -0.08,0.94 20.78,24.93 54.01,52.58 76.66,70.27 0.85,-0.02 1.71,-0.03 2.56,-0.04 l 2.01,-0.09 c 0.45,-0.04 0.92,-0.08 1.42,-0.13 0.54,-0.05 1.1,-0.11 1.69,-0.16 0.15,-1.58 0.3,-3.16 0.44,-4.73 1.87,-20.76 3.61,-41.35 5.72,-61.9 1.58,-15.472 2.84,-31.069 5.85,-46.288 2.79,-14.113 8.14,-24.383 16.31,-31.023 l -63.83,-39.45"
         style="fill:#1b6b06;fill-opacity:1;fill-rule:nonzero;stroke:none"
         id="path160" />
      <path
         d="m 2662.61,2671.61 c -4.76,0.96 -9.62,1.62 -14.34,2.73 4.71,-1.09 9.54,-1.74 14.31,-2.71 0.01,-0.01 0.02,-0.02 0.03,-0.02"
         style="fill:#61b23b;fill-opacity:1;fill-rule:nonzero;stroke:none"
         id="path162" />
      <path
         d="m 2804.18,2672.48 c -1.94,0.69 -3.9,1.21 -5.89,1.61 2.01,-0.4 4,-0.92 5.96,-1.61 -0.03,0 -0.04,0 -0.07,0 m -22.38,3.53 c -12.98,1.16 -26,2.14 -38.8,4.36 -24.54,4.2 -48.78,9.58 -71.75,19.12 22.97,-9.52 47.23,-14.9 71.74,-19.11 12.81,-2.2 25.83,-3.19 38.81,-4.37"
         style="fill:#61b23b;fill-opacity:1;fill-rule:nonzero;stroke:none"
         id="path164" />
      <path
         d="m 2715.14,2676.94 c -22.88,4.3 -45.35,11.04 -67.39,20.18 -3.47,1.43 -6.83,3.05 -10.1,4.83 3.27,-1.77 6.64,-3.38 10.12,-4.8 22.03,-9.15 44.49,-15.9 67.37,-20.21 m -81.96,9.31 c -19.17,10.94 -35.26,25.95 -49.65,43.15 -1.91,2.26 -4.25,4.95 -5.03,7.73 0.8,-2.77 3.15,-5.45 5.03,-7.71 14.38,-17.22 30.5,-32.21 49.65,-43.17"
         style="fill:#61b23b;fill-opacity:1;fill-rule:nonzero;stroke:none"
         id="path166" />
      <path
         d="m 2773.02,2692.39 c -21.84,2.26 -44,2.88 -65.4,7.26 -4.6,0.94 -9.16,2.06 -13.7,3.32 4.53,-1.25 9.08,-2.37 13.66,-3.3 21.41,-4.38 43.6,-4.99 65.44,-7.27 v -0.01 m -52.58,16.9 c -29.19,11.1 -56.02,26.42 -79.88,47.23 23.84,-20.79 50.69,-36.12 79.88,-47.23"
         style="fill:#61b23b;fill-opacity:1;fill-rule:nonzero;stroke:none"
         id="path168" />
      <path
         d="m 2648.76,2711.98 c -1.44,1.28 -2.88,2.59 -4.37,3.78 0.57,0.88 1.13,1.75 1.7,2.55 -0.56,-0.85 -1.12,-1.71 -1.67,-2.56 v 0 0 c 1.48,-1.19 2.9,-2.49 4.34,-3.77"
         style="fill:#61b23b;fill-opacity:1;fill-rule:nonzero;stroke:none"
         id="path170" />
      <path
         d="m 2579.96,2743.06 c 0.2,0.22 0.42,0.44 0.66,0.66 1.49,1.33 2.85,1.87 4.1,1.87 1.25,0 2.39,-0.53 3.47,-1.33 -1.07,0.79 -2.21,1.31 -3.45,1.31 -1.26,0 -2.63,-0.54 -4.14,-1.89 -0.24,-0.21 -0.45,-0.41 -0.64,-0.62 m 60.58,13.48 c -0.01,0.01 -0.02,0.02 -0.04,0.04 0.02,-0.02 0.03,-0.03 0.04,-0.04"
         style="fill:#61b23b;fill-opacity:1;fill-rule:nonzero;stroke:none"
         id="path172" />
      <path
         d="m 2473.61,2771.6 c -22.39,22.09 -42.03,47.76 -58.5,77.6 -10.38,18.8 -18.24,38.59 -24.75,58.84 6.52,-20.24 14.39,-40.01 24.79,-58.81 16.45,-29.85 36.08,-55.54 58.46,-77.63 m 142.83,9.01 c -22.79,25.35 -43,52.5 -58.52,82.7 15.55,-30.21 35.73,-57.33 58.52,-82.7 m -111.99,205.91 c -4.51,10.55 -9.05,21.1 -13.62,31.62 -3.87,9.04 -7.75,18.15 -11.8,27.19 -2.49,5.73 -5.01,11.44 -7.59,17.13 6.67,-14.66 13.01,-29.48 19.41,-44.27 4.57,-10.55 9.09,-21.11 13.6,-31.67"
         style="fill:#61b23b;fill-opacity:1;fill-rule:nonzero;stroke:none"
         id="path174" />
      <path
         d="m 2307.07,3193.47 c -2.35,3.09 -4.86,6.09 -7.54,9.01 -3.96,4.3 -8.3,8.25 -12.79,12.12 4.49,-3.85 8.83,-7.79 12.79,-12.09 2.68,-2.93 5.19,-5.94 7.54,-9.04"
         style="fill:#61b23b;fill-opacity:1;fill-rule:nonzero;stroke:none"
         id="path176" />
      <path
         d="m 2775.98,2671.27 c -20.58,0 -40.87,1.9 -60.84,5.67 19.95,-3.75 40.21,-5.65 60.76,-5.65 9.37,0.01 18.8,0.4 28.28,1.19 0.02,-0.01 0.04,-0.02 0.06,-0.03 -9.47,-0.78 -18.9,-1.18 -28.26,-1.18 m -113.37,0.35 c -0.01,0.01 -0.02,0.01 -0.03,0.01 -3.07,2.55 -6.37,3.97 -9.73,5.25 -6.9,2.66 -13.45,5.8 -19.67,9.37 6.23,-3.56 12.78,-6.69 19.72,-9.33 3.35,-1.29 6.62,-2.75 9.71,-5.3"
         style="fill:#309916;fill-opacity:1;fill-rule:nonzero;stroke:none"
         id="path178" />
      <path
         d="m 2798.29,2674.09 c -1.94,0.39 -3.9,0.66 -5.87,0.88 -3.53,0.38 -7.07,0.72 -10.62,1.04 3.54,-0.32 7.08,-0.65 10.61,-1.02 1.98,-0.22 3.94,-0.51 5.88,-0.9"
         style="fill:#309916;fill-opacity:1;fill-rule:nonzero;stroke:none"
         id="path180" />
      <path
         d="m 2648.27,2674.34 c -1.25,0.29 -2.49,0.61 -3.72,0.97 -66.14,19.97 -124.46,50.38 -170.94,96.29 46.5,-45.89 104.83,-76.3 170.96,-96.27 1.22,-0.37 2.46,-0.7 3.7,-0.99 m 124.77,18.06 c -0.01,0 -0.01,0 -0.02,0 l 0.18,1.16 v 0 c -2.71,0.76 -5.4,1.63 -8.14,2.27 -15.38,3.57 -30.28,8 -44.62,13.46 14.34,-5.45 29.25,-9.89 44.64,-13.46 2.69,-0.61 5.37,-1.48 8.14,-2.26 l -0.18,-1.17"
         style="fill:#309916;fill-opacity:1;fill-rule:nonzero;stroke:none"
         id="path182" />
      <path
         d="m 2671.25,2699.49 c -5.09,2.12 -10.12,4.43 -15.08,6.98 -2.69,1.4 -5.07,3.42 -7.41,5.51 2.35,-2.09 4.71,-4.11 7.41,-5.48 4.96,-2.56 9.99,-4.89 15.08,-7.01"
         style="fill:#309916;fill-opacity:1;fill-rule:nonzero;stroke:none"
         id="path184" />
      <path
         d="m 2637.65,2701.95 c -14.48,7.83 -27.05,18.8 -38.62,30.76 -1.83,1.87 -3.33,3.98 -5.25,5.77 -1.78,1.76 -3.57,4.26 -5.59,5.78 2.03,-1.51 3.82,-3.99 5.62,-5.74 1.86,-1.81 3.42,-3.91 5.23,-5.77 11.58,-11.97 24.16,-22.93 38.61,-30.8 m 56.27,1.02 c -16.03,4.42 -31.78,10.48 -47.74,15.47 -0.03,-0.04 -0.06,-0.09 -0.09,-0.13 0.03,0.05 0.07,0.1 0.1,0.16 15.94,-5.02 31.67,-11.06 47.73,-15.5 m -115.42,34.16 c -0.17,0.61 -0.27,1.22 -0.27,1.83 -0.01,1.38 0.49,2.76 1.73,4.1 -1.77,-1.94 -2.01,-3.96 -1.46,-5.93"
         style="fill:#309916;fill-opacity:1;fill-rule:nonzero;stroke:none"
         id="path186" />
      <path
         d="m 2640.5,2756.58 c -6.76,5.9 -13.28,12.25 -19.55,19.06 -1.51,1.65 -3.02,3.3 -4.51,4.97 1.48,-1.65 2.98,-3.3 4.48,-4.94 6.28,-6.82 12.81,-13.18 19.58,-19.09"
         style="fill:#309916;fill-opacity:1;fill-rule:nonzero;stroke:none"
         id="path188" />
      <path
         d="m 2557.92,2863.31 c -3.07,5.95 -5.95,12.02 -8.64,18.22 -15.15,34.9 -29.89,69.99 -44.83,104.99 14.97,-34.98 29.72,-70.08 44.86,-105.03 2.68,-6.19 5.55,-12.24 8.61,-18.18"
         style="fill:#309916;fill-opacity:1;fill-rule:nonzero;stroke:none"
         id="path190" />
      <path
         d="m 2390.36,2908.04 c -5.8,17.98 -10.53,36.34 -15.05,54.73 -3.25,13.4 -6.5,26.88 -9.67,40.36 0.02,0.01 0.04,0.02 0.05,0.03 3.17,-13.48 6.37,-26.96 9.66,-40.41 4.5,-18.38 9.22,-36.73 15.01,-54.71"
         style="fill:#309916;fill-opacity:1;fill-rule:nonzero;stroke:none"
         id="path192" />
      <path
         d="m 2775.9,2671.29 c -20.55,0 -40.81,1.9 -60.76,5.65 -22.88,4.31 -45.34,11.06 -67.37,20.21 -3.48,1.42 -6.85,3.03 -10.12,4.8 -14.45,7.87 -27.03,18.83 -38.61,30.8 -1.81,1.86 -3.37,3.96 -5.23,5.77 -1.8,1.75 -3.59,4.23 -5.62,5.74 -1.08,0.8 -2.22,1.33 -3.47,1.33 -1.25,0 -2.61,-0.54 -4.1,-1.87 -0.24,-0.22 -0.46,-0.44 -0.66,-0.66 -1.24,-1.34 -1.74,-2.72 -1.73,-4.1 0,-0.61 0.1,-1.22 0.27,-1.83 0.78,-2.78 3.12,-5.47 5.03,-7.73 14.39,-17.2 30.48,-32.21 49.65,-43.15 6.22,-3.57 12.77,-6.71 19.67,-9.37 3.36,-1.28 6.66,-2.7 9.73,-5.25 -4.77,0.97 -9.6,1.62 -14.31,2.71 -1.24,0.29 -2.48,0.62 -3.7,0.99 -66.13,19.97 -124.46,50.38 -170.96,96.27 -22.38,22.09 -42.01,47.78 -58.46,77.63 -10.4,18.8 -18.27,38.57 -24.79,58.81 -5.79,17.98 -10.51,36.33 -15.01,54.71 -3.29,13.45 -6.49,26.93 -9.66,40.41 37.19,22.8 81.43,35.46 113.34,42.17 -2.49,5.73 -5.01,11.44 -7.59,17.13 v 0 c 2.58,-5.69 5.1,-11.4 7.59,-17.13 4.05,-9.04 7.93,-18.15 11.8,-27.19 4.57,-10.52 9.11,-21.07 13.62,-31.62 14.94,-35 29.68,-70.09 44.83,-104.99 2.69,-6.2 5.57,-12.27 8.64,-18.22 15.52,-30.2 35.73,-57.35 58.52,-82.7 1.49,-1.67 3,-3.32 4.51,-4.97 6.27,-6.81 12.79,-13.16 19.55,-19.06 0.02,-0.02 0.03,-0.03 0.04,-0.04 0.01,-0.01 0.02,-0.01 0.02,-0.02 23.86,-20.81 50.69,-36.13 79.88,-47.23 14.34,-5.46 29.24,-9.89 44.62,-13.46 2.74,-0.64 5.43,-1.51 8.14,-2.27 l -0.18,-1.16 c -21.84,2.28 -44.03,2.89 -65.44,7.27 -4.58,0.93 -9.13,2.05 -13.66,3.3 -16.06,4.44 -31.79,10.48 -47.73,15.5 -0.03,-0.06 -0.07,-0.11 -0.1,-0.16 -0.57,-0.8 -1.13,-1.67 -1.7,-2.55 1.49,-1.19 2.93,-2.5 4.37,-3.78 2.34,-2.09 4.72,-4.11 7.41,-5.51 4.96,-2.55 9.99,-4.86 15.08,-6.98 22.97,-9.54 47.21,-14.92 71.75,-19.12 12.8,-2.22 25.82,-3.2 38.8,-4.36 3.55,-0.32 7.09,-0.66 10.62,-1.04 1.97,-0.22 3.93,-0.49 5.87,-0.88 1.99,-0.4 3.95,-0.92 5.89,-1.61 -9.48,-0.79 -18.91,-1.18 -28.28,-1.19"
         style="fill:#227309;fill-opacity:1;fill-rule:nonzero;stroke:none"
         id="path194" />
      <path
         d="m 2365.64,3003.13 v 0 c -9.33,40.03 -18.42,80.14 -28.17,120.17 -6.16,25.14 -14.73,49.48 -30.4,70.17 15.69,-20.67 24.27,-45.05 30.42,-70.2 9.77,-39.94 18.81,-80.07 28.2,-120.11 -0.01,-0.01 -0.03,-0.02 -0.05,-0.03 m 105.8,59.33 c -10.94,24.04 -22.75,47.66 -37.11,70 -30.69,47.78 -72.96,79.53 -128.58,92.62 -8.34,1.96 -16.78,3.66 -25.27,3.66 -3.15,0 -6.31,-0.24 -9.48,-0.78 v 0 0 c 5.22,-4.61 10.58,-8.93 15.74,-13.36 -5.17,4.43 -10.54,8.75 -15.76,13.38 3.17,0.54 6.33,0.78 9.48,0.78 8.49,0 16.93,-1.71 25.31,-3.68 55.57,-13.08 97.86,-44.81 128.58,-92.58 14.37,-22.37 26.19,-45.97 37.09,-70.04"
         style="fill:#207e0d;fill-opacity:1;fill-rule:nonzero;stroke:none"
         id="path196" />
      <path
         d="m 2365.69,3003.16 c -9.39,40.04 -18.43,80.17 -28.2,120.11 -6.15,25.15 -14.73,49.53 -30.42,70.2 -2.35,3.1 -4.86,6.11 -7.54,9.04 -3.96,4.3 -8.3,8.24 -12.79,12.09 -5.16,4.43 -10.52,8.75 -15.74,13.36 3.17,0.54 6.33,0.78 9.48,0.78 8.49,0 16.93,-1.7 25.27,-3.66 55.62,-13.09 97.89,-44.84 128.58,-92.62 14.36,-22.34 26.17,-45.96 37.11,-70 2.58,-5.69 5.1,-11.4 7.59,-17.13 -31.91,-6.71 -76.15,-19.37 -113.34,-42.17"
         style="fill:#175e05;fill-opacity:1;fill-rule:nonzero;stroke:none"
         id="path198" />
      <path
         d="m 1989.06,3943.36 c 13.68,-31.1 27.1,-61.58 40.45,-91.89 -30.52,-14.47 -59.72,-28.32 -88.9,-42.17 -19.93,47.92 0.69,106.82 48.45,134.06"
         style="fill:#90d966;fill-opacity:1;fill-rule:nonzero;stroke:none"
         id="path200" />
      <path
         d="m 1940.61,3809.3 c -5.1,12.26 -7.54,25.24 -7.56,38.23 -0.04,37.76 20.47,75.56 56.01,95.83 13.68,-31.1 27.1,-61.58 40.45,-91.89 -30.52,-14.47 -59.72,-28.32 -88.9,-42.17"
         style="fill:#61b23b;fill-opacity:1;fill-rule:nonzero;stroke:none"
         id="path202" />
      <path
         d="m 1989.06,3943.36 c -47.76,-27.24 -68.37,-86.14 -48.45,-134.06 29.18,13.85 58.38,27.7 88.9,42.17 -13.35,30.31 -26.77,60.79 -40.45,91.89 z m 783.96,-1250.97 0.18,1.17 c -2.71,0.76 -5.4,1.63 -8.14,2.27 -55.62,12.9 -104.91,37.17 -144.11,79.81 -29.18,31.74 -54.43,66.15 -71.67,105.89 -19.73,45.44 -38.75,91.19 -58.43,136.66 -16.89,39.04 -33.4,78.3 -56.52,114.27 -30.69,47.78 -72.96,79.53 -128.57,92.62 -11.45,2.69 -23.06,4.88 -34.76,2.88 9.78,-8.63 20.04,-16.24 28.53,-25.48 20.61,-22.41 30.89,-50.3 37.96,-79.21 13.06,-53.4 24.81,-107.12 37.86,-160.52 9.56,-39.09 20.17,-78.06 39.76,-113.55 50.67,-91.82 131.5,-144.29 229.46,-173.87 5.85,-1.77 12.02,-2.51 18.04,-3.72 -3.08,2.56 -6.39,3.98 -9.76,5.27 -28.17,10.83 -50.27,29.72 -69.32,52.54 -3.38,4.05 -8.28,9.5 -2.93,14.26 5.81,5.19 9.49,-1.55 13.21,-5.16 1.86,-1.81 3.42,-3.91 5.23,-5.77 14.2,-14.67 29.89,-27.84 48.71,-35.64 50.06,-20.75 102.33,-29.14 156.5,-24.63 -3.86,1.36 -7.83,2.05 -11.83,2.49 -16.48,1.78 -33.13,2.61 -49.43,5.41 -29.94,5.15 -59.53,12.04 -86.81,26.09 -4.36,2.25 -7.87,6.15 -11.76,9.28 0.59,0.91 1.18,1.81 1.77,2.72 20.44,-6.43 40.54,-14.55 61.43,-18.82 21.4,-4.38 43.57,-5 65.4,-7.26 z M 1613.15,1705.8 c -0.75,-2.64 -1.08,-3.6 -1.28,-4.58 -0.35,-1.78 -0.72,-3.57 -0.91,-5.37 -5.88,-56.57 -10.64,-113.11 -4.9,-170.1 4.27,-42.5 10.28,-84.77 25.15,-124.79 42.33,-113.96 121.29,-195.57 228.41,-250.34 50.14,-25.63 102.61,-46.41 156.7,-62.42 77.17,-22.84 155.34,-41.48 235.25,-52.16 52.43,-7.02 104.63,-15.94 157.66,-18.03 6.94,-0.28 14.02,-4.64 20.36,-8.29 2.34,-1.34 3.71,-6.02 3.86,-9.26 1.18,-24.562 1.68,-49.159 2.94,-73.71 0.84,-16.301 10,-27.039 25.09,-32.301 11,-3.84 22.2,-7.437 33.59,-9.738 58.26,-11.77 117.02,-16.391 176.48,-12.609 66.12,4.207 130.14,17.347 190.62,44.64 26.84,12.117 52.14,27.649 78.49,40.93 9.81,4.949 15.04,12.937 20.41,22.476 -2.08,-0.148 -3.34,-0.109 -4.54,-0.347 -57.18,-11.59 -114.3,-23.461 -171.54,-34.75 -67.5,-13.321 -135.44,-23.692 -204.26,-26.903 -29.06,-1.359 -45.34,11.473 -51.01,40.184 -3.01,15.219 -4.27,30.816 -5.85,46.288 -2.27,22.12 -4.11,44.28 -6.15,66.64 -2.08,0.17 -3.6,0.37 -5.12,0.39 -74.55,1.08 -148.66,7.75 -222.6,17.01 -86.1,10.79 -168.71,32.77 -246.84,71.57 -74.95,37.21 -148.9,75.6 -214.82,128.03 -53.43,42.5 -99.15,91.37 -132.62,151.16 -46.08,82.28 -70.63,171.28 -82.57,266.38 z m -157.27,1426.86 c -0.18,-0.58 -1.2,-2.89 -1.7,-5.32 -9.47,-46.21 -20.07,-92.24 -27.99,-138.72 -9.11,-53.53 -14.06,-107.51 -8.72,-162 8.04,-82.08 28.76,-160.66 63.33,-235.59 27.73,-60.1 66.42,-111.05 121.66,-148.78 53.7,-36.67 112.81,-61.3 174.34,-81.04 87.04,-27.92 176.67,-45.86 264.97,-68.96 49.49,-12.95 99.1,-25.28 145.32,-47.83 91.19,-44.47 147.24,-114.66 155.89,-217.97 3.15,-37.64 -2.58,-74.1 -24.39,-106.39 -3.65,-5.4 -7.85,-10.43 -12.61,-16.71 2.46,0.66 4.09,0.63 5.04,1.42 7.57,6.25 16.12,11.75 22.3,19.2 21.86,26.33 30.17,57.81 29.69,91.25 -0.32,22.45 -2.42,45.02 -9.93,66.67 -0.92,2.64 1.9,6.57 2.98,9.9 3.18,-1.62 7.71,-2.44 9.24,-5.03 3.23,-5.5 5.61,-11.75 7.07,-17.99 6.21,-26.42 8.33,-53.31 6.81,-80.35 -2.05,-36.5 -15.93,-67.83 -42.9,-92.97 -2.59,-2.41 -5.25,-4.73 -7.88,-7.1 l 0.41,-2.63 c 4.18,-0.83 9.04,-3.46 12.43,-2.19 20.8,7.79 37.37,21 48.28,40.75 14.74,26.68 21.29,54.93 16.94,85.42 -0.42,2.89 0.89,6.03 1.65,10.52 9.18,-6.23 10.29,-14.44 9.94,-21.72 -0.86,-17.82 -1.73,-35.87 -5.3,-53.26 -4.67,-22.75 -13.33,-44.3 -30.72,-60.96 -4.99,-4.77 -10.48,-9.01 -15.83,-13.57 9.96,-4.46 23.99,-0.72 33.7,9.26 14.13,14.52 22.41,32.19 27.14,51.72 3.05,12.59 6.14,25.19 9.8,37.61 0.75,2.53 4.13,4.29 6.29,6.41 1.54,-2.65 3.77,-5.13 4.41,-7.98 0.66,-2.9 -0.03,-6.2 -0.52,-9.26 -4.9,-30.48 -10.59,-60.7 -29.46,-86.6 1.01,-0.24 1.54,-0.55 1.96,-0.43 1.24,0.35 2.48,0.76 3.63,1.33 18.17,8.88 30.45,23.47 37.78,41.79 12.01,30.04 16.59,61.32 13.98,93.76 -6.19,76.87 -38.15,141.79 -90.61,197.29 -34.01,35.96 -76,60.39 -120.86,79.43 -92.04,39.05 -186.83,70.38 -283.41,96.15 -82.9,22.11 -163.72,48.81 -239.48,90.52 -96.71,53.24 -166.08,130.78 -212.61,229.53 -23.64,50.16 -37.39,103.82 -50.63,157.54 -19.58,79.44 -28.36,159.73 -21.81,241.5 0.9,11.26 0.3,22.64 0.38,32.38 z m 556.38,828.18 c 0.61,-2 0.76,-3.03 1.21,-3.9 18.01,-35.03 36.14,-69.98 46.41,-108.36 2.11,-7.88 1.4,-13.78 -5.33,-18.4 -3.58,-2.46 -7.75,-4.16 -11.8,-5.83 -78.94,-32.55 -152.68,-73.71 -217.46,-130 -46.26,-40.2 -92.16,-80.79 -132.93,-126.7 -86.29,-97.16 -149.14,-208.61 -199,-327.9 -1.78,-4.26 -3.14,-8.88 -3.68,-13.45 -4.22,-35.49 -9.02,-70.94 -12.02,-106.54 -4.15,-49.22 -4.26,-98.65 2.51,-147.6 10.94,-79.07 27.98,-156.95 58.59,-230.93 38.8,-93.76 97.32,-172.33 184.45,-227.1 67.74,-42.58 140.86,-72.85 218.03,-93.5 75.93,-20.31 151.68,-41.18 225.83,-67.39 50.37,-17.8 100.69,-35.61 148.27,-60.45 39.85,-20.81 76.3,-46.83 105.17,-80.41 35.52,-41.3 61.21,-89.42 74.94,-142.9 13.24,-51.53 15.06,-103.08 -2.05,-154.21 -13.41,-40.08 -39.73,-66.54 -82.23,-74.09 -35.7,-6.34 -67.62,4.85 -97.5,23.63 -7.41,4.67 -15.13,8.85 -22.48,13.61 -2.47,1.6 -4.36,4.21 -6.27,6.56 -2.07,2.57 -3.48,5.77 -5.83,8.02 -13.48,12.9 -27.82,24.98 -40.66,38.49 -41.8,44.04 -83.01,88.65 -124.62,132.87 -12.26,13.04 -24.58,26.11 -37.8,38.15 -36.86,33.57 -80.71,45.23 -129.67,39.46 -34.9,-4.12 -65.59,-19.07 -94.36,-38.15 -97.8,-64.83 -164.63,-154.41 -208.03,-262.4 -4.51,-11.24 -9.47,-23.17 -10,-34.97 -1.18,-26.86 -1.13,-53.95 0.93,-80.76 4.4,-57.46 18.92,-112.87 36.93,-167.48 31.23,-94.67 84.68,-173.74 162.35,-236.7 64.6,-52.37 136.77,-91.81 210.82,-128.6 62.47,-31.05 127.26,-54.62 196.13,-66 93.57,-15.45 187.76,-24.38 282.69,-24.7 4.83,-0.01 9.93,-0.64 14.43,-2.29 6.28,-2.3 9.88,-7.1 9.63,-14.42 -0.19,-5.57 -0.05,-11.24 0.77,-16.74 2.06,-13.85 5.04,-27.56 6.83,-41.43 2.54,-19.55 3.78,-39.271 6.62,-58.76 2.3,-15.742 4.97,-18.14 20.34,-16.441 52.31,5.769 104.85,10.422 156.71,19.031 62.64,10.399 124.68,24.379 186.97,36.87 13.36,2.68 26.67,5.6 40.28,8.47 -0.31,5.41 -0.46,9.8 -0.84,14.17 -3.52,40.12 -4.95,80.19 -1.59,120.48 4.4,52.76 29.65,91.95 74.33,119.14 20.83,12.68 41.82,25.14 63.17,36.92 88.69,48.94 170.42,106.99 240.37,180.89 52.61,55.58 96.55,116.98 124.2,188.66 20.69,53.63 34.04,109.3 40.26,166.71 7.73,71.4 7.37,142.53 -5.12,213.27 -11.44,64.84 -33.27,125.68 -72.35,179.65 -35.61,49.18 -77.6,91.98 -125.75,128.78 -23.68,18.1 -46.65,37.44 -74.28,49.56 -31.83,13.95 -63.48,28.44 -95.93,40.79 -91.45,34.79 -187.72,50.12 -283.33,67.74 -14.05,2.59 -28.92,0.34 -43.37,1.06 -42.23,2.13 -84.41,5.33 -126.66,6.81 -60.06,2.12 -119.52,8.14 -178.19,21.53 -49.07,11.19 -95.64,29.12 -141.29,49.97 -97.79,44.66 -178.52,107.83 -228.61,205.73 -26.35,51.48 -43.77,104.75 -40.98,163.3 1.97,41.27 6.67,82.21 14.73,122.77 6.72,33.8 15.78,66.53 35.01,95.83 14.53,22.14 33.38,38.05 58.79,46 6.91,2.16 13.72,4.68 20.49,7.27 21.66,8.29 43.49,16.1 67.2,14.02 59.43,-5.23 108.55,-31.2 148.3,-75.2 24.98,-27.65 42.72,-60 57.67,-93.81 26.44,-59.77 52.33,-119.79 78.23,-179.8 16.61,-38.47 38.54,-73.46 66.73,-104.49 21.84,-24.03 46.11,-44.76 76.21,-58.05 42.08,-18.59 86.62,-26.6 131.94,-31.11 40.19,-4 79.67,2.19 119.07,9.39 45.39,8.3 85.12,27.54 118.54,59.52 11.63,11.13 23.19,22.33 34.91,33.34 71.13,66.84 110.61,150.71 130.34,244.73 11.08,52.79 9.94,106.17 3.86,159.65 -6.82,60.04 -23.23,116.79 -52.96,169.66 -23.34,41.5 -49.38,81.06 -79.04,118.33 -45.59,57.28 -95.69,110.11 -153.15,155.62 -102.61,81.27 -217.41,138.02 -344.81,168.37 -42.09,10.03 -84.79,17.48 -127.23,26.01 -38.36,7.7 -65.46,26.89 -70.78,68.63 -0.16,1.28 -0.52,2.54 -0.83,3.8 -8.16,33.07 -18.33,65.41 -34.4,95.66 -8.88,16.71 -21.51,28.76 -40.57,32.11 -11.19,1.96 -22.7,3.72 -33.97,3.23 -57.09,-2.44 -111.74,-15.95 -164.07,-38.71 -37.81,-16.45 -75.43,-33.33 -113.03,-50.27 -8.67,-3.91 -16.88,-8.84 -25.34,-13.32 z M 2365.21,962.691 c -50.93,6.989 -101.49,12.707 -151.62,21.059 -136.24,22.67 -269.41,56.88 -392.06,122.14 -115.72,61.58 -199.95,153.24 -245.06,277.82 -15.06,41.59 -23.03,85.15 -26.45,129.29 -2.12,27.4 -4.69,54.97 -3.8,82.35 2.71,83.46 11.39,166.21 37.21,246.23 18.82,58.32 47.65,111.54 83.52,161.01 43.91,60.58 97.56,110.98 160.57,151.27 42.58,27.22 88.57,43.94 139.83,43.99 60.29,0.07 111.88,-21.1 153.18,-64.8 50.27,-53.18 99.34,-107.5 148.91,-161.34 2.43,-2.64 4.77,-5.35 9.58,-7.96 2.35,12.83 6.18,25.59 6.78,38.5 2.74,58.47 -19.03,106.95 -60.38,147.95 -25.42,25.21 -56.21,40.4 -88.52,53.63 -40.75,16.69 -83.6,26.18 -126.08,36.89 -64.37,16.23 -128.97,31.6 -193.12,48.68 -63.74,16.98 -126.21,37.84 -185.1,68.2 -70.68,36.45 -131.57,84.09 -173.41,153.07 -45.23,74.55 -72.84,155.7 -89.05,241.06 -9.33,49.17 -14.71,98.79 -10.81,148.68 3.36,42.86 8.69,85.7 15.62,128.14 25.97,158.93 91.41,302.11 177.29,436.79 70.07,109.86 158.95,202.09 264.32,278.45 23.26,16.86 47.64,32.2 71.75,47.86 4.01,2.61 3.15,5 2.49,8.4 -2.51,12.97 -6.18,25.9 -6.93,38.99 -2.83,49.51 13.72,91.77 50.54,125.35 24.45,22.29 53.52,37.35 83.52,50.64 32.45,14.37 64.82,28.97 97.62,42.52 51.46,21.26 104.83,36.31 159.74,45.46 21.66,3.61 43.64,7.09 65.51,7.31 43.25,0.45 75.73,-19.47 97.9,-56.87 21.48,-36.23 33.62,-75.78 42.31,-116.49 2.47,-11.56 8.43,-17.39 19.03,-19.39 23.95,-4.53 48.04,-8.29 71.94,-13.08 126.58,-25.35 246.09,-68.67 354.85,-139.52 80.19,-52.24 150.86,-115.04 212.61,-188.17 43.85,-51.94 82.82,-107.01 115.18,-166.91 32.13,-59.48 48.42,-123.2 55.68,-189.9 6.33,-58.24 5.47,-116.12 -6.33,-173.54 -4.11,-20.02 -10.43,-39.59 -15.81,-59.34 -9.3,-34.23 -24.7,-66.14 -40.99,-97.19 -16.59,-31.65 -37.53,-61.19 -63.08,-86.58 -28.5,-28.33 -56.97,-56.91 -87.63,-82.81 -44.04,-37.19 -97.04,-58.47 -150.66,-77.8 -47.26,-17.05 -96.64,-23.69 -146.29,-28.3 -27.63,-2.56 -55.37,-4.75 -83.09,-5.13 -42.93,-0.59 -85.13,6.34 -124.91,22.37 -69.6,28.06 -132.41,66.6 -182.03,124.43 -36.87,42.98 -62.28,92.03 -76.63,146.35 -17.28,65.42 -32.03,131.5 -48.68,197.08 -4.44,17.48 -10.67,34.74 -18.33,51.04 -4.2,8.94 -12.05,17.05 -20.07,23.12 -18.7,14.15 -38.93,10.45 -53.01,-8.54 -10.59,-14.28 -18.75,-29.93 -23.25,-47.21 -12.35,-47.37 -18.88,-95.58 -21.69,-144.43 -2.97,-51.67 12.67,-98.11 36.79,-142.74 25.06,-46.36 56.86,-87.06 100.06,-117.52 24.51,-17.28 50.21,-33.28 76.79,-47.14 48.86,-25.45 99.87,-45.9 153.97,-57.83 52.35,-11.54 105.23,-18.41 158.87,-19.3 48.5,-0.8 97,-1.6 145.49,-2.94 54.98,-1.51 108.62,-11.99 162.05,-24.41 70.07,-16.29 139.14,-35.75 206.44,-61.14 16.69,-6.3 33.22,-13.66 48.62,-22.6 29.37,-17.04 59.77,-33.15 86.31,-54.03 39.28,-30.89 76.8,-64.13 110.55,-101.47 73.68,-81.5 115.44,-177.12 128.58,-285.58 15.84,-130.72 4.17,-258.73 -43.35,-382.07 -31.12,-80.78 -81.17,-149.62 -141.04,-211.78 -71.09,-73.79 -153.31,-132.49 -242.39,-182.23 -21.51,-12.01 -42.27,-25.42 -64.03,-36.98 -27.91,-14.82 -40.29,-38.84 -44.79,-68.72 -5.78,-38.35 -2.7,-76.52 0.98,-114.75 1.75,-18.07 3.61,-36.19 4,-54.311 0.39,-18.27 -6.32,-34.528 -18.4,-48.387 -19.14,-21.992 -42.13,-39.133 -67.47,-53.281 -44.4,-24.801 -92.38,-39.512 -141.76,-50.219 -47.15,-10.223 -94.32,-20.25 -142.48,-24.91 -45.09,-4.363 -90.12,-3.992 -135.23,-0.27 -23.84,1.969 -47.85,3.508 -70.29,12.149 -16.6,6.379 -32.69,14.449 -48.18,23.238 -13.78,7.813 -22.5,20.5 -26.55,36.063 l -0.58,2.257 c -14.19,24.442 -13.91,51.653 -15.02,78.59 l -0.55,1.492"
         style="fill:#13250b;fill-opacity:1;fill-rule:nonzero;stroke:none"
         id="path204" />
      <path
         d="m 3580.66,1332.44 c 3.49,3.16 6.45,5.68 9.23,8.39 44.14,43.09 74.64,95.29 100.29,150.68 18.27,39.47 29.42,80.81 30.76,124.46 0.18,6.07 -0.87,12.49 -2.81,18.25 -2.6,7.75 -8.82,10.26 -16.19,6.61 -6.18,-3.05 -12.86,-6.52 -17.19,-11.62 -14.34,-16.87 -27.72,-34.56 -41.89,-52.47 18.09,-10.61 26.95,-24.86 26.17,-43.91 -0.46,-11.07 -1.61,-22.27 -4.09,-33.04 -8.12,-35.25 -24.63,-67.07 -42.47,-98.14 -13.27,-23.1 -27.52,-45.64 -41.81,-69.21 m 53.38,231.09 c -7.86,-11.88 -15.81,-23.4 -23.26,-35.23 -25.58,-40.63 -51.2,-81.24 -76.38,-122.12 -12.1,-19.64 -24.25,-39.37 -34.45,-60.02 -5.37,-10.88 -7.52,-23.67 -9.44,-35.87 -1.9,-12.03 3.93,-17.45 15.79,-17.32 3.1,0.03 6.28,0.19 9.28,-0.41 5.92,-1.18 9.99,1.23 13.42,5.67 2.22,2.87 4.54,5.68 6.95,8.38 47.82,53.47 84.48,113.64 107.3,181.74 4.87,14.52 6.62,30.29 8.2,45.64 1.34,13.14 -4.54,23.56 -17.41,29.54 m 133.65,63.46 c 2.52,-19.62 -2.13,-46.8 -7.57,-73.71 -10.36,-51.25 -33.04,-97.61 -58.84,-142.57 -30.27,-52.74 -67.34,-99.7 -116.24,-136.63 -21.37,-16.13 -44.1,-29.27 -70.95,-33.7 -46.4,-7.65 -82.43,25.24 -78.57,71.97 2.09,25.3 10.57,48.58 24.5,69.77 29.5,44.9 58.97,89.82 88.84,134.48 15.14,22.64 31.36,44.56 46.59,67.14 6.21,9.22 11.03,19.37 16.61,29.03 13.36,23.1 29.11,44.38 50.73,60.36 7.99,5.9 17.21,11.22 26.69,13.85 38.84,10.77 69.94,-10.66 78.21,-59.99"
         style="fill:#13250b;fill-opacity:1;fill-rule:nonzero;stroke:none"
         id="path206" />
      <path
         d="m 3634.04,1563.53 c 12.87,-5.98 18.75,-16.4 17.41,-29.54 -1.58,-15.35 -3.33,-31.12 -8.2,-45.64 -22.82,-68.1 -59.48,-128.27 -107.3,-181.74 -2.41,-2.7 -4.73,-5.51 -6.95,-8.38 -3.43,-4.44 -7.5,-6.85 -13.42,-5.67 -3,0.6 -6.18,0.44 -9.28,0.41 -11.86,-0.13 -17.69,5.29 -15.79,17.32 1.92,12.2 4.07,24.99 9.44,35.87 10.2,20.65 22.35,40.38 34.45,60.02 25.18,40.88 50.8,81.49 76.38,122.12 7.45,11.83 15.4,23.35 23.26,35.23"
         style="fill:#90d966;fill-opacity:1;fill-rule:nonzero;stroke:none"
         id="path208" />
      <path
         d="m 3518.45,1292.26 c -0.01,0 -0.01,0 -0.02,0 -0.9,0 -1.84,0.1 -2.85,0.3 v 0 c -0.04,0.01 -0.09,0.02 -0.14,0.03 -1.8,0.34 -3.66,0.42 -5.53,0.42 -0.01,0 -0.03,0 -0.04,0 v 0 c -0.01,0 -0.03,0 -0.04,0 -0.94,0 -1.88,-0.02 -2.82,-0.03 -0.24,-0.01 -0.47,-0.01 -0.71,-0.01 v 0 c -0.13,-0.01 -0.26,-0.01 -0.38,-0.01 -0.02,0 -0.03,0 -0.05,0 -10.12,0.02 -15.73,4.17 -15.71,13.17 0,1.29 0.11,2.68 0.35,4.16 1.92,12.2 4.07,24.99 9.44,35.87 10.2,20.65 22.35,40.38 34.45,60.02 25.18,40.88 50.8,81.49 76.38,122.12 7.45,11.83 15.4,23.35 23.26,35.23 11.67,-5.42 17.59,-14.48 17.59,-25.91 0,-1.19 -0.06,-2.39 -0.18,-3.63 -1.58,-15.35 -3.33,-31.12 -8.2,-45.64 -22.82,-68.1 -59.48,-128.27 -107.3,-181.74 -2.41,-2.7 -4.73,-5.51 -6.95,-8.38 -0.06,-0.08 -0.12,-0.15 -0.18,-0.23 -0.03,-0.03 -0.05,-0.07 -0.08,-0.1 0,0 0,-0.01 -0.01,-0.01 0,0 0,0 0,-0.01 -0.03,-0.02 -0.05,-0.05 -0.07,-0.08 -2.77,-3.43 -5.97,-5.54 -10.21,-5.54"
         style="fill:#c8ec99;fill-opacity:1;fill-rule:nonzero;stroke:none"
         id="path210" />
      <path
         d="m 3580.66,1332.44 c 14.29,23.57 28.54,46.11 41.81,69.21 17.85,31.07 34.35,62.89 42.47,98.14 2.48,10.77 3.63,21.97 4.09,33.03 0.78,19.06 -8.08,33.31 -26.17,43.92 14.17,17.91 27.55,35.6 41.89,52.47 4.33,5.1 11.01,8.57 17.19,11.62 7.37,3.65 13.59,1.14 16.19,-6.61 1.94,-5.76 2.99,-12.18 2.81,-18.25 -1.34,-43.65 -12.49,-84.99 -30.76,-124.46 -25.65,-55.39 -56.15,-107.59 -100.29,-150.68 -2.78,-2.71 -5.74,-5.23 -9.23,-8.39"
         style="fill:#90d966;fill-opacity:1;fill-rule:nonzero;stroke:none"
         id="path212" />
      <path
         d="m 3039.05,3984.28 c 22.82,9.59 41.31,21.4 52.97,41.64 9.58,16.61 10.67,33.78 1.9,51.29 -11.94,23.84 -30.01,42.34 -51.69,57.04 -52.02,35.25 -109.11,53.38 -172.55,48.65 -21.47,-1.6 -39.4,-11.11 -57.59,-24.58 49.1,6.97 95.1,0.72 139.54,-16.27 47.19,-18.04 79.06,-50.35 89.94,-101 3.92,-18.3 2.92,-36.53 -2.52,-56.77 m -224.41,158.51 c -6.2,-1.83 -10.69,-2.55 -14.58,-4.48 -2.92,-1.45 -6.28,-3.98 -7.38,-6.83 -8.42,-21.77 -8.68,-44.04 1.17,-65.13 14.44,-30.94 36.7,-55.54 67.74,-70.38 41.09,-19.64 84.02,-31.34 130.33,-24.38 12.6,1.9 21.78,7.72 26.83,19.58 6.08,14.26 7.16,29.18 4.96,44.28 -5.83,39.99 -28.99,67.34 -63.99,85.44 -22.11,11.44 -46.12,17.41 -70.48,21.35 -25.41,4.11 -51.04,5.14 -74.6,0.55 m 198.53,-208.99 c -55.7,-13.95 -116.05,-0.98 -173.67,28.34 -33.87,17.24 -57.29,45.63 -76.92,77.41 -1.22,1.98 -2.02,4.44 -3.69,5.88 -12.37,10.61 -15.74,24.82 -15.35,40.01 0.8,30.92 8.02,59.36 27.78,84.76 44.2,56.82 103.01,73.2 170.39,60.76 67.45,-12.46 127.08,-41.91 171.67,-96.13 16.26,-19.78 28.1,-42.28 31.56,-68.36 4.65,-34.97 -8.42,-63.45 -33.53,-86.32 -25.42,-23.16 -56.05,-37.1 -98.24,-46.35"
         style="fill:#13250b;fill-opacity:1;fill-rule:nonzero;stroke:none"
         id="path214" />
      <path
         d="m 2814.64,4142.79 c 23.56,4.59 49.19,3.56 74.6,-0.55 24.36,-3.94 48.37,-9.91 70.48,-21.35 35,-18.1 58.16,-45.45 63.99,-85.44 2.2,-15.1 1.12,-30.02 -4.96,-44.28 -5.05,-11.86 -14.23,-17.68 -26.83,-19.58 -46.31,-6.96 -89.24,4.74 -130.33,24.38 -31.04,14.84 -53.3,39.44 -67.74,70.38 -9.85,21.09 -9.59,43.36 -1.17,65.13 1.1,2.85 4.46,5.38 7.38,6.83 3.89,1.93 8.38,2.65 14.58,4.48"
         style="fill:#90d966;fill-opacity:1;fill-rule:nonzero;stroke:none"
         id="path216" />
      <path
         d="m 2964.83,3969.57 c -0.02,0 -0.05,0 -0.06,0 -36.11,0.01 -70.23,10.65 -103.18,26.4 -31.04,14.84 -53.3,39.44 -67.74,70.38 -5.04,10.79 -7.44,21.89 -7.44,33.08 -0.01,10.67 2.16,21.42 6.27,32.05 1.1,2.85 4.46,5.38 7.38,6.83 3.89,1.93 8.38,2.65 14.58,4.48 10.73,2.09 21.89,3.01 33.27,3.01 13.59,0 27.49,-1.32 41.33,-3.56 24.36,-3.94 48.37,-9.91 70.48,-21.35 35,-18.1 58.16,-45.45 63.99,-85.44 0.68,-4.66 1.05,-9.31 1.05,-13.91 0.01,-10.34 -1.81,-20.51 -6.01,-30.37 -5.05,-11.86 -14.23,-17.68 -26.83,-19.58 -0.3,-0.04 -0.6,-0.09 -0.9,-0.13 -8.85,-1.29 -17.58,-1.89 -26.19,-1.89"
         style="fill:#70be48;fill-opacity:1;fill-rule:nonzero;stroke:none"
         id="path218" />
      <path
         d="m 3039.05,3984.28 c 5.44,20.24 6.44,38.47 2.52,56.77 -10.88,50.65 -42.75,82.96 -89.94,101 -44.44,16.99 -90.44,23.24 -139.54,16.27 18.19,13.47 36.12,22.98 57.59,24.58 63.44,4.73 120.53,-13.4 172.55,-48.65 21.68,-14.7 39.75,-33.2 51.69,-57.04 8.77,-17.51 7.68,-34.68 -1.9,-51.29 -11.66,-20.24 -30.15,-32.05 -52.97,-41.64"
         style="fill:#90d966;fill-opacity:1;fill-rule:nonzero;stroke:none"
         id="path220" />
      <path
         d="m 3039.05,3984.28 c 3.23,12.01 4.9,23.33 4.89,34.36 v 0 c 0,7.55 -0.78,14.98 -2.37,22.41 -10.88,50.65 -42.75,82.96 -89.94,101 v 0 c -0.23,0.09 -0.46,0.18 -0.69,0.26 -0.06,0.03 -0.12,0.05 -0.18,0.07 -0.41,0.16 -0.82,0.31 -1.23,0.46 -0.12,0.05 -0.24,0.09 -0.36,0.14 -0.13,0.05 -0.27,0.1 -0.4,0.15 -0.12,0.05 -0.25,0.09 -0.38,0.14 -0.14,0.05 -0.29,0.11 -0.44,0.16 -31.24,11.5 -63.27,17.69 -96.62,17.7 -0.02,0 -0.04,0 -0.06,0 v 0 c -0.01,0 -0.02,0 -0.02,0 -12.85,0 -25.89,-0.92 -39.16,-2.81 18.19,13.47 36.12,22.98 57.59,24.58 6.65,0.49 13.23,0.74 19.74,0.74 55.62,0 106.24,-17.84 152.81,-49.39 21.68,-14.7 39.75,-33.2 51.69,-57.04 4.04,-8.07 5.99,-16.07 5.97,-23.98 -0.01,-9.24 -2.71,-18.36 -7.87,-27.31 -11.66,-20.24 -30.15,-32.05 -52.97,-41.64"
         style="fill:#c8ec99;fill-opacity:1;fill-rule:nonzero;stroke:none"
         id="path222" />
      <path
         d="m 3187.42,3805.72 c -4.04,8.35 -7.22,17.27 -12.28,24.94 -18.59,28.17 -41.81,49.5 -78.31,49.96 -13.7,0.18 -30.88,-13.13 -33.25,-26.44 -4.88,-27.49 4.09,-49.91 25.1,-67.79 14.69,-12.5 31.75,-20.41 50.21,-25.59 14.2,-3.99 27.67,-2.5 38.44,7.81 10.33,9.88 12.88,22.69 10.09,37.11 m -162.24,15.6 c -4.58,15.29 -2.06,34.48 3.78,52.78 6.07,19.03 31.3,46.49 61.34,47.64 61.23,2.34 106.53,-34.07 128.52,-84.25 10.21,-23.31 13.29,-46.69 3.02,-70.77 -12.14,-28.46 -40.29,-45.46 -71.26,-44.5 -41,1.28 -73.34,19.9 -100.83,48.58 -12.47,13.02 -19.65,29.09 -24.57,50.52"
         style="fill:#13250b;fill-opacity:1;fill-rule:nonzero;stroke:none"
         id="path224" />
      <path
         d="m 3187.41,3805.71 c 2.76,-14.39 0.23,-27.24 -10.08,-37.08 -3.54,-3.33 -7.37,-5.78 -11.4,-7.41 -8.29,-3.32 -17.49,-3.14 -27.01,-0.44 -18.49,5.18 -35.54,13.12 -50.2,25.59 -21.02,17.88 -30.05,40.3 -25.16,67.79 1.29,7.03 6.64,14.07 13.43,19.02 6.09,4.62 13.36,7.53 19.86,7.41 36.47,-0.46 59.66,-21.73 78.26,-49.95 5.06,-7.63 8.27,-16.55 12.3,-24.93"
         style="fill:#90d966;fill-opacity:1;fill-rule:nonzero;stroke:none"
         id="path226" />
      <path
         d="m 3165.93,3761.22 c -27.35,67.54 -60.32,98.53 -88.94,111.96 5.97,4.53 13.07,7.41 19.47,7.41 0.13,0 0.26,0 0.39,0 36.47,-0.46 59.66,-21.73 78.26,-49.95 5.06,-7.63 8.27,-16.55 12.3,-24.93 0.68,-3.54 1.04,-6.99 1.04,-10.32 0,-10.21 -3.35,-19.34 -11.12,-26.76 -3.54,-3.33 -7.37,-5.78 -11.4,-7.41 v 0"
         style="fill:#c8ec99;fill-opacity:1;fill-rule:nonzero;stroke:none"
         id="path228" />
      <path
         d="m 1175.74,2747.52 c 0.18,1.14 1.5,4.33 1.01,7.21 -1.92,11.14 -2.99,22.74 -6.99,33.15 -8.63,22.46 -22.75,41.33 -43.22,54.6 -11.75,7.61 -22.06,2.73 -22.99,-11.04 -0.61,-8.97 -1.02,-18.6 1.55,-27.01 8.47,-27.82 23.9,-51.12 49.48,-66.39 9.06,-5.41 16.57,-2.3 21.16,9.48 z m -42.32,-43.93 c -24.34,11.66 -43.88,38.88 -55.85,72.64 -2.83,7.99 -5.67,16.08 -9.54,23.6 -17.42,33.86 -2.56,75.86 31.14,86.39 19.86,6.2 38.28,1.83 54.29,-10.66 33.82,-26.4 55.48,-60.66 62.69,-103.21 2.95,-17.42 1.61,-34.75 -8,-50.4 -15.23,-24.8 -38.47,-32.54 -74.73,-18.36"
         style="fill:#13250b;fill-opacity:1;fill-rule:nonzero;stroke:none"
         id="path230" />
      <path
         d="m 1175.74,2747.52 c -4.59,-11.78 -12.1,-14.89 -21.16,-9.48 -25.58,15.27 -41.01,38.57 -49.48,66.39 -2.57,8.41 -2.16,18.04 -1.55,27.01 0.93,13.77 11.24,18.65 22.99,11.04 20.47,-13.27 34.59,-32.14 43.22,-54.6 4,-10.41 5.07,-22.01 6.99,-33.15 0.49,-2.88 -0.83,-6.07 -1.01,-7.21"
         style="fill:#90d966;fill-opacity:1;fill-rule:nonzero;stroke:none"
         id="path232" />
      <path
         d="m 1123.24,2592.51 c -1.19,-0.52 -2.37,-1.05 -3.56,-1.57 -0.18,-6.35 -1.14,-12.79 -0.39,-19.03 2.46,-20.32 9.62,-39.24 18.83,-57.38 21.4,-42.16 53.44,-75.49 88.28,-106.59 40.21,-35.89 85.26,-65.13 130.39,-94.01 53.87,-34.46 109.13,-66.76 163.83,-99.92 21.9,-13.26 43.93,-26.31 65.59,-39.27 l -0.77,1.56 c -2.56,2.93 -5.1,5.88 -7.8,8.67 -27.75,28.58 -58.7,53.47 -91.41,75.94 -57.91,39.79 -116.69,78.27 -171.52,122.41 -38.02,30.61 -76.63,60.6 -107.35,98.86 -20.91,26.04 -39.61,53.86 -59.64,80.63 -7.67,10.27 -16.29,19.82 -24.48,29.7 m 355.95,-464.87 c 24.88,-10.39 50.59,-17.21 77.48,-19.45 13.51,-1.12 26.44,0.77 38.54,6.94 1.89,0.96 4.45,3.72 4.21,5.26 -1.45,9.28 -3.63,18.4 -12.09,24.34 -12.3,8.63 -24.05,18.16 -36.89,25.88 -28.43,17.09 -58.05,32.25 -85.98,50.07 -51.99,33.17 -103.16,67.62 -154.6,101.66 -47.22,31.24 -92.39,65.07 -131.78,106.08 -33.99,35.4 -60.36,75.13 -71.82,123.64 -3.57,15.15 -5.38,30.23 -0.68,45.29 1.61,5.17 -0.08,7.34 -4.38,8.64 -4.67,1.41 -9.39,3.12 -14.19,3.57 -6.62,0.61 -16.42,-6.21 -18.47,-11.98 -4.62,-12.94 -7.21,-26.33 -3.19,-39.68 8.6,-28.51 15.37,-57.94 27.52,-84.91 38.53,-85.54 97.62,-155.68 169.77,-214.83 65.8,-53.94 138.67,-96.51 216.55,-130.52 m -26.69,-48.79 c -35.37,14.63 -68.26,33.81 -100.55,54.21 -40.81,25.77 -81.39,51.81 -118.22,83.19 -80.27,68.39 -143.48,149.5 -183.78,247.53 -11.41,27.75 -19.41,56.39 -20.77,86.6 -0.18,3.87 -0.44,7.83 -1.44,11.55 -6.71,24.96 -1.6,48.23 9.37,70.86 8.27,17.05 35.73,31.31 58.41,28.4 10.33,-1.33 20.97,-4.48 30.21,-9.24 25.3,-13.04 46.64,-31.42 61.97,-55.45 49.46,-77.53 114.24,-139.98 188.54,-193.07 47.03,-33.61 94.89,-66.06 141.97,-99.61 40.39,-28.77 79.62,-59.1 111.71,-97.38 16.67,-19.88 27.45,-42.79 29.82,-68.98 2.79,-30.98 -15.37,-60.34 -45.18,-74.08 -28.4,-13.09 -58.09,-13.25 -87.69,-6.83 -25.25,5.47 -49.97,13.4 -74.92,20.25 l 0.55,2.05"
         style="fill:#13250b;fill-opacity:1;fill-rule:nonzero;stroke:none"
         id="path234" />
      <path
         d="m 1479.19,2127.64 c -77.88,34.01 -150.75,76.58 -216.55,130.52 -72.15,59.15 -131.24,129.29 -169.77,214.83 -12.15,26.97 -18.92,56.4 -27.52,84.91 -4.02,13.35 -1.43,26.74 3.19,39.68 2.05,5.77 11.85,12.59 18.47,11.98 4.8,-0.45 9.52,-2.16 14.19,-3.57 4.3,-1.3 5.99,-3.47 4.38,-8.64 -4.7,-15.06 -2.89,-30.14 0.68,-45.29 11.46,-48.51 37.83,-88.24 71.82,-123.64 39.39,-41.01 84.56,-74.84 131.78,-106.08 51.44,-34.04 102.61,-68.49 154.6,-101.66 27.93,-17.82 57.55,-32.98 85.98,-50.07 12.84,-7.72 24.59,-17.25 36.89,-25.88 8.46,-5.94 10.64,-15.06 12.09,-24.34 0.24,-1.54 -2.32,-4.3 -4.21,-5.26 -12.1,-6.17 -25.03,-8.06 -38.54,-6.94 -26.89,2.24 -52.6,9.06 -77.48,19.45"
         style="fill:#90d966;fill-opacity:1;fill-rule:nonzero;stroke:none"
         id="path236" />
      <path
         d="m 1563.9,2107.89 c 0,0 -0.01,0 -0.02,0 -2.23,0 -4.48,0.09 -6.75,0.27 -0.15,0.01 -0.3,0.02 -0.46,0.03 v 0 c -26.89,2.24 -52.6,9.06 -77.48,19.45 -77.88,34.01 -150.75,76.58 -216.55,130.52 -72.15,59.15 -131.24,129.29 -169.77,214.83 -12.15,26.97 -18.92,56.4 -27.52,84.91 -1.38,4.59 -1.98,9.18 -1.99,13.76 -0.01,8.74 2.15,17.43 5.18,25.92 1.97,5.52 11.04,12.01 17.61,12.01 0.29,0 0.58,-0.01 0.86,-0.03 4.8,-0.45 9.52,-2.16 14.19,-3.57 3.22,-0.98 4.98,-2.44 4.98,-5.29 0,-0.95 -0.2,-2.06 -0.6,-3.35 -2,-6.41 -2.83,-12.83 -2.83,-19.25 v 0 c -0.01,-8.66 1.46,-17.34 3.51,-26.04 11.46,-48.51 37.83,-88.24 71.82,-123.64 39.39,-41.01 84.56,-74.84 131.78,-106.08 51.44,-34.04 102.61,-68.49 154.6,-101.66 27.93,-17.82 57.55,-32.98 85.98,-50.07 12.84,-7.72 24.59,-17.25 36.89,-25.88 8.46,-5.94 10.64,-15.06 12.09,-24.34 0.01,-0.07 0.02,-0.15 0.02,-0.23 -0.02,-1.56 -2.43,-4.11 -4.23,-5.03 v 0 c -9.92,-5.06 -20.41,-7.24 -31.31,-7.24"
         style="fill:#80df43;fill-opacity:1;fill-rule:nonzero;stroke:none"
         id="path238" />
      <path
         d="m 1123.24,2592.51 c 8.19,-9.88 16.81,-19.43 24.48,-29.7 20.03,-26.77 38.73,-54.59 59.64,-80.63 30.72,-38.26 69.33,-68.25 107.35,-98.86 54.83,-44.14 113.61,-82.62 171.52,-122.41 32.71,-22.47 63.66,-47.36 91.41,-75.94 2.7,-2.79 5.24,-5.74 7.8,-8.67 l 0.77,-1.56 c -21.66,12.96 -43.69,26.01 -65.59,39.27 -54.7,33.16 -109.96,65.46 -163.83,99.92 -45.13,28.88 -90.18,58.12 -130.39,94.01 -34.84,31.1 -66.88,64.43 -88.28,106.59 -9.21,18.14 -16.37,37.06 -18.83,57.38 -0.75,6.24 0.21,12.68 0.39,19.03 1.19,0.52 2.37,1.05 3.56,1.57"
         style="fill:#90d966;fill-opacity:1;fill-rule:nonzero;stroke:none"
         id="path240" />
      <path
         d="m 1586.21,2174.74 c -21.66,12.96 -43.69,26.01 -65.59,39.27 -54.7,33.16 -109.96,65.46 -163.83,99.92 -45.13,28.88 -90.18,58.12 -130.39,94.01 -34.84,31.1 -66.88,64.43 -88.28,106.59 -9.21,18.14 -16.37,37.06 -18.83,57.38 -0.21,1.71 -0.28,3.43 -0.28,5.16 0,4.6 0.54,9.26 0.67,13.87 1.19,0.52 2.37,1.05 3.56,1.57 8.19,-9.88 16.81,-19.43 24.48,-29.7 20.03,-26.77 38.73,-54.59 59.64,-80.63 30.72,-38.26 69.33,-68.25 107.35,-98.86 54.83,-44.14 113.61,-82.62 171.52,-122.41 32.71,-22.47 63.66,-47.36 91.41,-75.94 2.7,-2.79 5.24,-5.74 7.8,-8.67 l 0.77,-1.56"
         style="fill:#a8df6c;fill-opacity:1;fill-rule:nonzero;stroke:none"
         id="path242" />
      <path
         d="m 2500,353.191 c -745.21,0 -1349.32,48.399 -1349.32,108.11 0,59.711 604.11,108.109 1349.32,108.109 745.21,0 1349.32,-48.398 1349.32,-108.109 0,-59.711 -604.11,-108.11 -1349.32,-108.11"
         style="fill:#49dc49;fill-opacity:1;fill-rule:nonzero;stroke:none"
         id="path244" />
    </g>
  </g>
</svg>
